<svg xmlns="http://www.w3.org/2000/svg" width="72" height="72" viewBox="0 0 72 72"><path fill="#333" d="M67.17 17.93a35.78 35.78 0 0 0-13.1-13.1A35.2 35.2 0 0 0 36 0a35.22 35.22 0 0 0-18.07 4.83 35.78 35.78 0 0 0-13.1 13.1A35.22 35.22 0 0 0 0 36c0 6.53 1.61 12.55 4.83 18.07a35.78 35.78 0 0 0 13.1 13.1A35.22 35.22 0 0 0 36 72a35.2 35.2 0 0 0 18.07-4.83 35.78 35.78 0 0 0 13.1-13.1A35.22 35.22 0 0 0 72 36a35.2 35.2 0 0 0-4.83-18.07zM52.4 37.41l-3 3a2 2 0 0 1-1.48.63c-.57 0-1.06-.21-1.48-.63l-6.22-6.22v16.53c0 .57-.21 1.06-.63 1.48-.42.42-.91.62-1.48.62h-4.22c-.57 0-1.06-.2-1.48-.62a2.01 2.01 0 0 1-.62-1.48V34.19l-6.23 6.22c-.39.4-.89.59-1.48.59s-1.09-.19-1.48-.59l-3-3a2.02 2.02 0 0 1-.59-1.48c0-.59.2-1.08.59-1.48l14.92-14.92c.39-.39.89-.59 1.48-.59s1.09.2 1.48.59L52.4 34.45c.39.4.59.89.59 1.48s-.2 1.09-.59 1.48z"/></svg>