<svg xmlns="http://www.w3.org/2000/svg" width="31" height="23" viewBox="0 0 31 23"><path fill="#fff" d="M22.48 18c-.69 0-1.27.24-1.75.74a2.4 2.4 0 0 0-.73 1.77c0 .68.24 1.27.73 1.77.48.48 1.06.72 1.75.72s1.28-.24 1.78-.74c.5-.49.74-1.07.74-1.75 0-.69-.26-1.26-.75-1.76a2.4 2.4 0 0 0-1.77-.75zm0 3.51a.99.99 0 0 1-.98-1c0-.55.44-1.02.98-1.02.55 0 1.02.47 1.02 1.02s-.47 1-1.02 1zM14.52 18c-.69 0-1.28.25-1.78.75S12 19.82 12 20.51c0 .68.24 1.26.74 1.75.5.5 1.09.74 1.78.74s1.27-.24 1.75-.72c.49-.5.73-1.09.73-1.77a2.4 2.4 0 0 0-.73-1.77 2.32 2.32 0 0 0-1.75-.74zm0 3.51a1 1 0 0 1-1.02-1c0-.55.44-1.02 1.02-1.02.54 0 .98.47.98 1.02s-.43 1-.98 1zM29.4.11a.82.82 0 0 0-1.02.56l-.86 2.96H7.02L5.63.51A.79.79 0 0 0 4.86 0H.83A.84.84 0 0 0 0 .87c0 .48.36.85.83.85h3.5l6.58 14.77a.8.8 0 0 0 .77.51h13.04c.41 0 .7-.21.82-.64l4.42-15.18c.14-.46-.09-.94-.56-1.07zm-5.29 15.18h-11.9L7.79 5.34h19.23z"/></svg>