<svg xmlns="http://www.w3.org/2000/svg" width="26" height="19" viewBox="0 0 26 19"><path fill="#fff" d="M18.98 15c-.55 0-1.01.19-1.4.59-.39.4-.58.87-.58 1.42 0 .54.19 1.02.58 1.41.39.39.85.58 1.4.58.55 0 1.03-.19 1.43-.59.4-.4.59-.86.59-1.4 0-.55-.2-1.01-.6-1.41-.4-.4-.87-.6-1.42-.6zm0 2.81a.8.8 0 0 1-.78-.8c0-.44.35-.82.78-.82.45 0 .82.38.82.82 0 .43-.37.8-.82.8zM12.02 15c-.55 0-1.03.2-1.43.6-.4.4-.59.86-.59 1.41 0 .54.19 1 .59 1.4.4.4.88.59 1.43.59a1.9 1.9 0 0 0 1.4-.58c.39-.39.58-.87.58-1.41 0-.55-.19-1.02-.58-1.42-.39-.4-.85-.59-1.4-.59zm0 2.81a.8.8 0 0 1-.82-.8c0-.44.35-.82.82-.82.43 0 .78.38.78.82a.8.8 0 0 1-.78.8zM24.5.09a.68.68 0 0 0-.85.46l-.72 2.44H5.85L4.69.42A.65.65 0 0 0 4.05 0H.69A.7.7 0 0 0 0 .72c0 .39.3.7.69.7h2.92l5.48 12.16c.14.29.37.42.65.42H20.6c.34 0 .58-.18.68-.52L24.97.97a.69.69 0 0 0-.47-.88zm-4.41 12.5h-9.91l-3.69-8.2h16.03z"/></svg>