<?xml version="1.0" encoding="UTF-8"?>
<svg width="85px" height="56px" viewBox="0 0 85 56" version="1.1" xmlns="http://www.w3.org/2000/svg" xmlns:xlink="http://www.w3.org/1999/xlink">
    <!-- Generator: Sketch 44.1 (41455) - http://www.bohemiancoding.com/sketch -->
    <title>Page 1</title>
    <desc>Created with Sketch.</desc>
    <defs>
        <polygon id="path-1" points="0 0.1484 0 0.078 84.919 0.078 84.919 56 0 56 0 0.1484 -0.0001 9.6854 84.9189 9.6854 84.9189 0.1484 0 0.1484"></polygon>
        <polygon id="path-3" points="0 0.177 0 11 42.45945 11 84.9189 11 84.9189 0.177 6.77626358e-21 0.177"></polygon>
    </defs>
    <g id="Welcome" stroke="none" stroke-width="1" fill="none" fill-rule="evenodd">
        <g id="ADD-NEW-PAYMENT-METHOD" transform="translate(-1019.000000, -636.000000)">
            <g id="Page-1" transform="translate(1019.000000, 635.000000)">
                <path d="M84.9185,52.1276 C84.9185,54.7746 82.6715,56.9216 79.8985,56.9216 L5.0195,56.9216 C2.2475,56.9216 0.0005,54.7746 0.0005,52.1276 L0.0005,5.7936 C0.0005,3.1466 2.2475,1.0006 5.0195,1.0006 L79.8985,1.0006 C82.6715,1.0006 84.9185,3.1466 84.9185,5.7936 L84.9185,52.1276 Z" id="Fill-1" fill="#FFFFFF"></path>
                <path d="M16.2612,29.863 L14.4322,20.724 C14.1192,19.464 13.2102,19.089 12.0732,19.039 L3.6882,19.039 L3.6142,19.457 C10.1442,21.106 14.4652,25.084 16.2612,29.863" id="Fill-3" fill="#F89F1A"></path>
                <polygon id="Fill-5" fill="#059BBF" points="40.0303 18.3009 34.1233 18.3009 30.4343 38.4829 36.3313 38.4829"></polygon>
                <path d="M22.4478,38.4626 L31.7378,18.3146 L25.4868,18.3146 L19.7068,32.0806 L19.0908,30.0026 C17.9578,27.5016 14.7198,23.9026 10.9198,21.6376 L16.2018,38.4696 L22.4478,38.4626 Z" id="Fill-7" fill="#059BBF"></path>
                <path d="M56.8774,31.8854 C56.8994,29.5944 55.3214,27.8464 51.9204,26.4034 C49.8534,25.4704 48.5944,24.8494 48.6084,23.9034 C48.6084,23.0674 49.6754,22.1694 51.9874,22.1694 C53.9214,22.1414 55.3144,22.5354 56.4024,22.9424 L56.9374,23.1704 L57.7374,18.7984 C56.5664,18.3904 54.7364,17.9554 52.4474,17.9554 C46.6164,17.9554 42.5114,20.6914 42.4744,24.6144 C42.4374,27.5154 45.4084,29.1324 47.6464,30.0984 C49.9424,31.0844 50.7134,31.7144 50.6984,32.5994 C50.6834,33.9504 48.8684,34.5674 47.1714,34.5674 C44.8084,34.5674 43.5564,34.2634 41.6144,33.5094 L40.8594,33.1864 L40.0304,37.7084 C41.4074,38.2704 43.9564,38.7604 46.6014,38.7814 C52.8024,38.7814 56.8334,36.0794 56.8774,31.8854" id="Fill-9" fill="#059BBF"></path>
                <path d="M67.9385,25.6847 C67.9095,25.7397 68.4275,24.5177 68.7245,23.7577 L69.1245,25.4977 C69.1245,25.4977 70.2505,30.3197 70.4875,31.3277 L65.5895,31.3277 C66.0795,30.1677 67.9385,25.6847 67.9385,25.6847 M63.8935,35.4587 C64.5675,35.4587 70.5915,35.4657 71.4505,35.4657 C71.6285,36.1677 72.1695,38.4907 72.1695,38.4907 L77.6445,38.4907 L72.8655,18.3217 L68.3095,18.3217 C66.8945,18.3217 65.8425,18.6807 65.2195,19.9937 L56.4555,38.4907 L62.6565,38.4907 C62.6565,38.4907 63.6635,36.0047 63.8935,35.4587" id="Fill-11" fill="#059BBF"></path>
                <g id="Group-15" transform="translate(0.000000, 0.921600)">
                    <mask id="mask-2" fill="white">
                        <use xlink:href="#path-1"></use>
                    </mask>
                    <g id="Clip-14"></g>
                    <path d="M79.8989,0.1484 L5.0199,0.1484 C2.2479,0.1484 -0.0001,2.2434 -0.0001,4.8284 L-0.0001,9.6854 L84.9189,9.6854 L84.9189,4.8284 C84.9189,2.2434 82.6709,0.1484 79.8989,0.1484" id="Fill-13" fill="#059BBF" mask="url(#mask-2)"></path>
                </g>
                <g id="Group-18" transform="translate(0.000000, 45.921600)">
                    <mask id="mask-4" fill="white">
                        <use xlink:href="#path-3"></use>
                    </mask>
                    <g id="Clip-17"></g>
                    <path d="M79.8989,11 L5.0199,11 C2.2479,11 -0.0001,8.622 -0.0001,5.688 L-0.0001,0.177 L84.9189,0.177 L84.9189,5.688 C84.9189,8.622 82.6709,11 79.8989,11" id="Fill-16" fill="#F89F1A" mask="url(#mask-4)"></path>
                </g>
                <path d="M3.7534,52.1276 L3.7534,5.7936 C3.7534,3.1466 6.1174,1.0006 9.0334,1.0006 L5.2794,1.0006 C2.3634,1.0006 0.0004,3.1466 0.0004,5.7936 L0.0004,52.1276 C0.0004,54.7746 2.3634,56.9216 5.2794,56.9216 L9.0334,56.9216 C6.1174,56.9216 3.7534,54.7746 3.7534,52.1276" id="Fill-19" fill="#1F2121"></path>
            </g>
        </g>
    </g>
</svg>