<?xml version="1.0" encoding="UTF-8"?>
<svg width="85px" height="56px" viewBox="0 0 85 56" version="1.1" xmlns="http://www.w3.org/2000/svg" xmlns:xlink="http://www.w3.org/1999/xlink">
    <!-- Generator: Sketch 44.1 (41455) - http://www.bohemiancoding.com/sketch -->
    <title>Page 1</title>
    <desc>Created with Sketch.</desc>
    <defs>
        <polygon id="path-1" points="0 55.9996 0 0.0786 84.0956 0.0786 84.0956 55.9996"></polygon>
    </defs>
    <g id="Welcome" stroke="none" stroke-width="1" fill="none" fill-rule="evenodd">
        <g id="ADD-NEW-PAYMENT-METHOD" transform="translate(-952.000000, -638.000000)">
            <g id="Page-1" transform="translate(952.000000, 637.000000)">
                <g id="Group-3" transform="translate(0.000000, 0.921600)">
                    <mask id="mask-2" fill="white">
                        <use xlink:href="#path-1"></use>
                    </mask>
                    <g id="Clip-2"></g>
                    <path d="M3.4476,0.0786 L80.6486,0.0786 C82.5526,0.0786 84.0956,1.8696 84.0956,4.0786 L84.0956,51.9996 C84.0956,54.2086 82.5526,55.9996 80.6486,55.9996 L3.4476,55.9996 C1.5436,55.9996 -0.0004,54.2086 -0.0004,51.9996 L-0.0004,4.0786 C-0.0004,1.8696 1.5436,0.0786 3.4476,0.0786" id="Fill-1" fill="#D8D8D8" mask="url(#mask-2)"></path>
                </g>
                <path d="M77.8666,28.9606 C77.8666,40.3756 68.5976,49.7056 57.0126,49.7056 C45.5366,49.7056 36.1576,40.3756 36.1576,28.9606 C36.1576,17.5456 45.4266,8.2156 56.9016,8.2156 C68.5976,8.2156 77.8666,17.5456 77.8666,28.9606" id="Fill-4" fill="#FFB600"></path>
                <path d="M57.0121,8.2155 C68.4881,8.2155 77.8661,17.5455 77.8661,28.9605 C77.8661,40.3755 68.5981,49.7055 57.0121,49.7055 C45.5361,49.7055 36.1571,40.3755 36.1571,28.9605" id="Fill-6" fill="#F8981D"></path>
                <path d="M57.0121,8.2155 C68.4881,8.2155 77.8661,17.5455 77.8661,28.9605 C77.8661,40.3755 68.5981,49.7055 57.0121,49.7055" id="Fill-8" fill="#FF8500"></path>
                <path d="M30.0326,8.2155 C18.6376,8.3255 9.3446,17.5455 9.3446,28.9605 C9.3446,40.3755 18.6376,49.7055 30.2546,49.7055 C35.6756,49.7055 40.5436,47.6205 44.3046,44.3275 C45.0786,43.6685 45.7426,42.9015 46.4066,42.1325 L42.0926,42.1325 C41.5386,41.4735 40.9856,40.7055 40.5436,40.0465 L47.9556,40.0465 C48.3986,39.3885 48.8406,38.6195 49.1726,37.8515 L39.3256,37.8515 C38.9936,37.1935 38.6626,36.4245 38.4416,35.6555 L49.9476,35.6555 C50.6106,33.5705 51.0536,31.3755 51.0536,29.0705 C51.0536,27.5335 50.8326,26.1075 50.6106,24.6795 L37.7776,24.6795 C37.8876,23.9115 38.1096,23.2535 38.3306,22.4855 L49.8366,22.4855 C49.6156,21.7165 49.2836,20.9475 48.9516,20.2895 L39.2156,20.2895 C39.5476,19.5215 39.9906,18.8625 40.4326,18.0945 L47.8446,18.0945 C47.4026,17.3255 46.8496,16.5575 46.1856,15.8995 L42.0926,15.8995 C42.7556,15.1305 43.4196,14.4725 44.1946,13.8135 C40.5436,10.4105 35.5646,8.4355 30.1436,8.4355 C30.1436,8.2155 30.1436,8.2155 30.0326,8.2155" id="Fill-10" fill="#FF5050"></path>
                <path d="M9.3441,28.8503 C9.3441,40.3273 18.6371,49.7053 30.2541,49.7053 C35.6751,49.7053 40.5431,47.6093 44.3041,44.2983 C45.0791,43.6363 45.7431,42.8653 46.4071,42.0923 L42.0921,42.0923 C41.5391,41.4303 40.9861,40.6583 40.5431,39.9963 L47.9561,39.9963 C48.3981,39.3333 48.8411,38.5613 49.1731,37.7883 L39.3261,37.7883 C38.9941,37.1263 38.6621,36.3543 38.4411,35.5813 L49.9471,35.5813 C50.6111,33.4853 51.0531,31.2783 51.0531,28.9603 C51.0531,27.4163 50.8321,25.9813 50.6111,24.5473 L37.7771,24.5473 C37.8881,23.7743 38.1091,23.1123 38.3301,22.3403 L49.8361,22.3403 C49.6151,21.5673 49.2831,20.7953 48.9511,20.1333 L39.2161,20.1333 C39.5471,19.3603 39.9901,18.6983 40.4321,17.9263 L47.8451,17.9263 C47.4031,17.1543 46.8491,16.3813 46.1851,15.7193 L42.0921,15.7193 C42.7561,14.9473 43.4201,14.2853 44.1941,13.6223 C40.5431,10.2023 35.5641,8.2153 30.1431,8.2153 L30.0321,8.2153" id="Fill-12" fill="#E52836"></path>
                <path d="M30.4183,49.7057 C35.7963,49.7057 40.6263,47.6087 44.3573,44.2987 C45.1263,43.6367 45.7853,42.8647 46.4433,42.0927 L42.1633,42.0927 C41.6143,41.4307 41.0653,40.6577 40.6263,39.9957 L47.9803,39.9957 C48.4193,39.3337 48.8583,38.5607 49.1873,37.7887 L39.4183,37.7887 C39.0893,37.1267 38.7603,36.3537 38.5413,35.5817 L49.9563,35.5817 C50.6143,33.4847 51.0533,31.2777 51.0533,28.9607 C51.0533,27.4157 50.8343,25.9817 50.6143,24.5467 L37.8823,24.5467 C37.9923,23.7747 38.2113,23.1127 38.4313,22.3397 L49.8463,22.3397 C49.6263,21.5677 49.2973,20.7947 48.9683,20.1327 L39.3093,20.1327 C39.6383,19.3607 40.0773,18.6987 40.5163,17.9257 L47.8703,17.9257 C47.4313,17.1537 46.8823,16.3817 46.2243,15.7197 L42.1633,15.7197 C42.8213,14.9467 43.4803,14.2847 44.2483,13.6227 C40.6263,10.2017 35.6873,8.2157 30.3083,8.2157 L30.1983,8.2157" id="Fill-14" fill="#CB1F26"></path>
                <path d="M38.5956,34.4499 L38.9266,32.7779 C38.8166,32.7779 38.5956,32.8769 38.3756,32.8769 C37.6046,32.8769 37.4936,32.4829 37.6046,32.2859 L38.2656,28.8439 L39.4766,28.8439 L39.8076,26.9749 L38.7056,26.9749 L38.9266,25.7949 L36.7226,25.7949 C36.7226,25.7949 35.4016,32.2859 35.4016,33.0729 C35.4016,34.2539 36.1726,34.7449 37.1636,34.7449 C37.8246,34.7449 38.3756,34.5489 38.5956,34.4499" id="Fill-16" fill="#FFFFFF"></path>
                <path d="M43.2225,28.4509 C44.4335,28.4509 44.2135,29.7289 44.2135,29.8269 L41.7905,29.8269 C41.7905,29.7289 42.0105,28.4509 43.2225,28.4509 M39.3675,31.3029 C39.3675,34.0559 41.4595,34.7449 43.2225,34.7449 C44.8745,34.7449 45.5355,34.4499 45.5355,34.4499 L45.9765,32.5809 C45.9765,32.5809 44.7645,33.0729 43.6625,33.0729 C41.2395,33.0729 41.6805,31.4999 41.6805,31.4999 L46.1965,31.4999 C46.1965,31.4999 46.5275,30.2209 46.5275,29.7289 C46.5275,28.4509 45.7555,26.8769 43.3325,26.8769 C41.0195,26.6799 39.3675,28.8439 39.3675,31.3029" id="Fill-18" fill="#FFFFFF"></path>
                <path d="M57.2123,34.4499 L57.6523,32.2859 C57.6523,32.2859 56.5513,32.7779 55.7803,32.7779 C54.2383,32.7779 53.5773,31.6959 53.5773,30.5159 C53.5773,28.1559 54.8993,26.8769 56.4413,26.8769 C57.5433,26.8769 58.4243,27.4669 58.4243,27.4669 L58.7543,25.4019 C58.7543,25.4019 57.4323,24.9099 56.2213,24.9099 C53.6873,24.9099 51.1533,26.8769 51.1533,30.6149 C51.1533,33.0729 52.4753,34.7449 55.1193,34.7449 C56.0003,34.7449 57.2123,34.4499 57.2123,34.4499" id="Fill-20" fill="#FFFFFF"></path>
                <path d="M26.9193,31.1061 C26.9193,31.4011 26.6983,32.9741 25.3773,32.9741 C24.7153,32.9741 24.4953,32.4831 24.4953,32.1881 C24.4953,31.6961 24.8263,31.0071 26.4783,31.0071 C26.8093,31.1061 26.9193,31.1061 26.9193,31.1061 M26.4783,26.6801 C24.9363,26.6801 23.8353,27.0741 23.8353,27.0741 L23.5043,28.7461 C23.5043,28.7461 24.4953,28.3521 25.9273,28.3521 C26.6983,28.3521 27.3593,28.4511 27.3593,29.0411 C27.3593,29.4341 27.2493,29.5321 27.2493,29.5321 L26.2583,29.5321 C24.3853,29.5321 22.2923,30.2211 22.2923,32.4831 C22.2923,34.2531 23.6143,34.6461 24.3853,34.6461 C25.9273,34.6461 26.5883,33.7611 26.6983,33.7611 L26.5883,34.5481 L28.5713,34.5481 L29.4523,29.1391 C29.4523,26.7781 27.2493,26.6801 26.4783,26.6801" id="Fill-22" fill="#FFFFFF"></path>
                <path d="M31.5458,34.6462 C32.0968,34.6462 34.8508,34.7452 34.8508,32.0892 C34.8508,29.6312 32.2068,30.1232 32.2068,29.1392 C32.2068,28.6472 32.6478,28.4512 33.4188,28.4512 C33.7488,28.4512 34.9608,28.5492 34.9608,28.5492 L35.2908,26.7782 C35.2908,26.7782 34.5198,26.5822 33.1978,26.5822 C31.5458,26.5822 29.8938,27.1722 29.8938,29.1392 C29.8938,31.4012 32.6478,31.2042 32.6478,32.0892 C32.6478,32.6792 31.8768,32.7782 31.3258,32.7782 C30.3338,32.7782 29.3428,32.4832 29.3428,32.4832 L29.0118,34.2532 C29.1228,34.4502 29.6728,34.6462 31.5458,34.6462" id="Fill-24" fill="#FFFFFF"></path>
                <path d="M74.5067,30.319 C74.5067,31.401 73.9557,32.778 72.7447,32.778 C71.9737,32.778 71.5327,32.188 71.5327,31.204 C71.5327,29.631 72.3037,28.647 73.2957,28.647 C74.0667,28.647 74.5067,29.139 74.5067,30.319 L74.5067,30.319 Z M75.4987,25.107 L75.0577,27.762 C75.0577,27.762 74.1767,26.778 72.9647,26.778 C70.9817,26.778 69.2197,28.943 69.2197,31.5 C69.2197,33.073 70.1007,34.745 71.9737,34.745 C73.2957,34.745 74.0667,33.958 74.0667,33.958 L73.9557,34.646 L76.1597,34.646 L77.8117,25.205 L75.4987,25.107 Z" id="Fill-26" fill="#FFFFFF"></path>
                <polygon id="Fill-28" fill="#FFFFFF" points="14.4716 34.5485 15.7936 27.4665 16.0136 34.5485 17.5556 34.5485 20.4196 27.4665 19.2076 34.5485 21.5216 34.5485 23.2846 25.1065 19.6486 25.1065 17.4456 30.9095 17.3356 25.1065 14.1406 25.1065 12.3786 34.5485"></polygon>
                <path d="M48.62,34.5485 C49.281,31.3025 49.391,28.6475 50.933,29.1385 C51.154,27.8605 51.484,27.3685 51.704,26.8775 L51.264,26.8775 C50.272,26.8775 49.501,28.0575 49.501,28.0575 L49.722,26.9755 L47.629,26.9755 L46.197,34.6465 L48.62,34.6465 L48.62,34.5485 Z" id="Fill-30" fill="#FFFFFF"></path>
                <path d="M62.8304,31.1061 C62.8304,31.4011 62.6094,32.9741 61.2884,32.9741 C60.6274,32.9741 60.4064,32.4831 60.4064,32.1881 C60.4064,31.6961 60.7374,31.0071 62.3894,31.0071 C62.7204,31.1061 62.7204,31.1061 62.8304,31.1061 M62.2794,26.6801 C60.7374,26.6801 59.6354,27.0741 59.6354,27.0741 L59.3054,28.7461 C59.3054,28.7461 60.2964,28.3521 61.7284,28.3521 C62.4994,28.3521 63.1614,28.4511 63.1614,29.0411 C63.1614,29.4341 63.0504,29.5321 63.0504,29.5321 L62.0594,29.5321 C60.1864,29.5321 58.0934,30.2211 58.0934,32.4831 C58.0934,34.2531 59.4154,34.6461 60.1864,34.6461 C61.7284,34.6461 62.3894,33.7611 62.4994,33.7611 L62.3894,34.5481 L64.3724,34.5481 L65.2534,29.1391 C65.3644,26.7781 63.0504,26.6801 62.2794,26.6801" id="Fill-32" fill="#FFFFFF"></path>
                <path d="M67.1263,34.5485 C67.7873,31.3025 67.8973,28.6475 69.4393,29.1385 C69.6603,27.8605 69.9903,27.3685 70.2103,26.8775 L69.7703,26.8775 C68.7783,26.8775 68.0073,28.0575 68.0073,28.0575 L68.2283,26.9755 L66.1353,26.9755 L64.7033,34.6465 L67.1263,34.6465 L67.1263,34.5485 Z" id="Fill-34" fill="#FFFFFF"></path>
                <path d="M35.181,33.0729 C35.181,34.2539 35.952,34.7449 36.943,34.7449 C37.714,34.7449 38.375,34.5489 38.596,34.4499 L38.926,32.7779 C38.816,32.7779 38.596,32.8769 38.375,32.8769 C37.604,32.8769 37.494,32.4829 37.604,32.2859 L38.265,28.8439 L39.477,28.8439 L39.807,26.9749 L38.706,26.9749 L38.926,25.7949" id="Fill-36" fill="#DCE5E5"></path>
                <path d="M43.2225,28.4509 C44.4335,28.4509 44.6545,29.7289 44.6545,29.8269 L41.7905,29.8269 C41.7905,29.7289 42.0105,28.4509 43.2225,28.4509 M40.4685,31.3029 C40.4685,34.0559 41.4595,34.7449 43.2225,34.7449 C44.8745,34.7449 45.5355,34.4499 45.5355,34.4499 L45.9765,32.5809 C45.9765,32.5809 44.7645,33.0729 43.6625,33.0729 C41.2395,33.0729 41.6805,31.4999 41.6805,31.4999 L46.1965,31.4999 C46.1965,31.4999 46.5275,30.2209 46.5275,29.7289 C46.5275,28.4509 45.7555,26.8769 43.3325,26.8769 C41.0195,26.6799 40.4685,28.8439 40.4685,31.3029" id="Fill-38" fill="#DCE5E5"></path>
                <path d="M57.2123,34.4499 L57.6523,32.2859 C57.6523,32.2859 56.5513,32.7779 55.7803,32.7779 C54.2383,32.7779 53.5773,31.6959 53.5773,30.5159 C53.5773,28.1559 54.8993,26.8769 56.4413,26.8769 C57.5433,26.8769 58.4243,27.4669 58.4243,27.4669 L58.7543,25.4019 C58.7543,25.4019 57.4323,24.9099 56.2213,24.9099 C53.6873,24.9099 52.2553,26.8769 52.2553,30.6149 C52.2553,33.0729 52.4753,34.7449 55.1193,34.7449 C56.0003,34.7449 57.2123,34.4499 57.2123,34.4499" id="Fill-40" fill="#DCE5E5"></path>
                <path d="M28.0209,31.1061 C28.0209,31.4011 26.6989,32.9741 25.3769,32.9741 C24.7159,32.9741 24.4959,32.4831 24.4959,32.1881 C24.4959,31.6961 24.8259,31.0071 26.4789,31.0071 C26.8089,31.1061 28.0209,31.1061 28.0209,31.1061 L28.0209,31.1061 Z M23.5039,28.8441 C23.5039,28.8441 24.4959,28.4511 25.9279,28.4511 C26.6989,28.4511 27.3599,28.5491 27.3599,29.1391 C27.3599,29.5321 27.2499,29.6311 27.2499,29.6311 L26.2579,29.6311 C24.3859,29.6311 22.2919,30.3191 22.2919,32.5811 C22.2919,34.3511 23.6139,34.7451 24.3859,34.7451 C25.9279,34.7451 26.5889,33.8601 26.6989,33.8601 L26.5889,34.6461 L28.5719,34.6461 L29.4529,29.2371 C29.4529,26.9751 27.2499,26.8771 26.3689,26.8771 L23.5039,28.8441 Z" id="Fill-42" fill="#DCE5E5"></path>
                <path d="M29.1224,34.4499 C29.1224,34.4499 29.7834,34.6459 31.6554,34.6459 C32.2064,34.6459 34.9604,34.7449 34.9604,32.0899 C34.9604,29.6309 32.3164,30.1229 32.3164,29.1389 C32.3164,28.6469 32.7574,28.4509 33.5284,28.4509 C33.8584,28.4509 35.0704,28.5489 35.0704,28.5489 L35.4014,26.7789 C35.4014,26.7789 34.6304,26.5819 33.3084,26.5819 C31.6554,26.5819 31.1044,27.1719 31.1044,29.1389 C31.1044,31.4009 32.7574,31.2039 32.7574,32.0899 C32.7574,32.6789 31.9864,32.7779 31.4354,32.7779" id="Fill-44" fill="#DCE5E5"></path>
                <path d="M74.9476,30.319 C74.9476,31.401 73.9556,32.778 72.7446,32.778 C71.9736,32.778 71.5326,32.188 71.5326,31.204 C71.5326,29.631 72.3036,28.647 73.2956,28.647 C74.0666,28.647 74.9476,29.139 74.9476,30.319 L74.9476,30.319 Z M75.0576,27.762 C75.0576,27.762 74.1766,26.778 72.9646,26.778 C70.9816,26.778 70.3216,28.943 70.3216,31.5 C70.3216,33.073 70.1006,34.745 71.9736,34.745 C73.2956,34.745 74.0666,33.958 74.0666,33.958 L73.9556,34.646 L76.1596,34.646 L77.8116,25.205 L75.0576,27.762 Z" id="Fill-46" fill="#DCE5E5"></path>
                <polygon id="Fill-48" fill="#DCE5E5" points="14.4716 34.5485 15.7936 27.4665 16.0136 34.5485 17.5556 34.5485 20.4196 27.4665 19.2076 34.5485 21.5216 34.5485 23.2846 25.1065 20.5306 25.1065 17.4456 30.9095 17.3356 25.1065 16.1236 25.1065 12.3786 34.5485"></polygon>
                <path d="M46.3065,34.5485 L48.6195,34.5485 C49.2815,31.3025 49.3905,28.6475 50.9335,29.1385 C51.1535,27.8605 51.4845,27.3685 51.7045,26.8775 L51.2645,26.8775 C50.2725,26.8775 49.5015,28.0575 49.5015,28.0575 L49.7215,26.9755" id="Fill-50" fill="#DCE5E5"></path>
                <path d="M63.8217,31.1061 C63.8217,31.4011 62.4997,32.9741 61.1777,32.9741 C60.5167,32.9741 60.2967,32.4831 60.2967,32.1881 C60.2967,31.6961 60.6277,31.0071 62.2797,31.0071 C62.7197,31.1061 63.8217,31.1061 63.8217,31.1061 L63.8217,31.1061 Z M59.3047,28.8441 C59.3047,28.8441 60.2967,28.4511 61.7287,28.4511 C62.4997,28.4511 63.1607,28.5491 63.1607,29.1391 C63.1607,29.5321 63.0507,29.6311 63.0507,29.6311 L62.0587,29.6311 C60.1867,29.6311 58.0937,30.3191 58.0937,32.5811 C58.0937,34.3511 59.4157,34.7451 60.1867,34.7451 C61.7287,34.7451 62.3897,33.8601 62.4997,33.8601 L62.3897,34.6461 L64.3727,34.6461 L65.2537,29.2371 C65.2537,26.9751 63.0507,26.8771 62.1697,26.8771 L59.3047,28.8441 Z" id="Fill-52" fill="#DCE5E5"></path>
                <path d="M64.8134,34.5485 L67.1264,34.5485 C67.7874,31.3025 67.8974,28.6475 69.4394,29.1385 C69.6604,27.8605 69.9904,27.3685 70.2104,26.8775 L69.7704,26.8775 C68.7784,26.8775 68.0074,28.0575 68.0074,28.0575 L68.2284,26.9755" id="Fill-54" fill="#DCE5E5"></path>
            </g>
        </g>
    </g>
</svg>