<?xml version="1.0" encoding="UTF-8"?>
<svg width="84px" height="55px" viewBox="0 0 84 55" version="1.1" xmlns="http://www.w3.org/2000/svg" xmlns:xlink="http://www.w3.org/1999/xlink">
    <!-- Generator: Sketch 44.1 (41455) - http://www.bohemiancoding.com/sketch -->
    <title>Page 1</title>
    <desc>Created with Sketch.</desc>
    <defs>
        <path d="M3.2614,55.9893 C1.7394,55.9893 0.4994,54.7503 0.4994,53.2273 L0.4994,4.2613 C0.4994,2.7393 1.7394,1.5003 3.2614,1.5003 L80.7394,1.5003 C82.2614,1.5003 83.5004,2.7393 83.5004,4.2613 L83.5004,53.2273 C83.5004,54.7503 82.2614,55.9893 80.7394,55.9893 L3.2614,55.9893 Z" id="path-1"></path>
        <polygon id="path-2" points="0 0.51 84.001 0.51 84.001 56 0 56 0 0.5104 -0.0001 55.9994 84.0009 55.9994 84.0009 0.5104 0 0.5104"></polygon>
    </defs>
    <g id="Welcome" stroke="none" stroke-width="1" fill="none" fill-rule="evenodd">
        <g id="ADD-NEW-PAYMENT-METHOD" transform="translate(-1023.000000, -806.000000)">
            <g id="Page-1" transform="translate(1023.000000, 805.000000)">
                <g id="Fill-1">
                    <use fill="#FFFFFF" fill-rule="evenodd" xlink:href="#path-1"></use>
                    <path stroke="#2273AA" stroke-width="2" d="M3.2614,54.9893 L80.7394,54.9893 C81.7092141,54.9893 82.5004,54.1979163 82.5004,53.2273 L82.5004,4.2613 C82.5004,3.29158475 81.7091153,2.5003 80.7394,2.5003 L3.2614,2.5003 C2.29138263,2.5003 1.4994,3.29188684 1.4994,4.2613 L1.4994,53.2273 C1.4994,54.1976142 2.29128365,54.9893 3.2614,54.9893 Z"></path>
                </g>
                <g id="Group-5" transform="translate(0.000000, 0.489700)">
                    <mask id="mask-3" fill="white">
                        <use xlink:href="#path-2"></use>
                    </mask>
                    <g id="Clip-4"></g>
                    <path d="M80.7389,0.5104 L3.2609,0.5104 C1.4609,0.5104 -0.0001,1.9704 -0.0001,3.7724 L-0.0001,52.7384 C-0.0001,54.5394 1.4609,55.9994 3.2609,55.9994 L80.7389,55.9994 C82.5409,55.9994 84.0009,54.5394 84.0009,52.7384 L84.0009,3.7724 C84.0009,1.9704 82.5409,0.5104 80.7389,0.5104 M80.7389,1.5104 C81.9859,1.5104 83.0009,2.5254 83.0009,3.7724 L83.0009,52.7384 C83.0009,53.9854 81.9859,54.9994 80.7389,54.9994 L3.2609,54.9994 C2.0139,54.9994 0.9999,53.9854 0.9999,52.7384 L0.9999,3.7724 C0.9999,2.5254 2.0139,1.5104 3.2609,1.5104 L80.7389,1.5104" id="Fill-3" fill="#2273AA" mask="url(#mask-3)"></path>
                </g>
                <path d="M63.1451,30.0801 C62.9221,30.9711 62.1431,31.3041 61.2531,31.4161 C60.4741,31.4161 59.8061,30.9711 60.2511,30.0801 C60.6971,29.4131 61.6991,29.4131 62.4771,29.4131 L63.3681,29.4131 C63.2561,29.3011 63.1451,29.7471 63.1451,30.0801 M62.9221,22.6241 C61.2531,22.6241 59.9171,23.0691 58.8051,23.2911 L58.4711,25.8511 C59.0281,25.6281 60.5851,25.1841 61.9201,25.0721 C63.2561,25.0721 64.0361,25.2951 63.8131,26.5191 C59.8061,26.5191 57.1351,27.2981 56.5791,29.9691 C55.8001,34.4211 60.6971,34.5321 62.5881,32.5281 L62.3661,33.7531 L65.9271,33.7531 L67.4851,26.5191 C68.0411,23.5141 65.3711,22.5131 62.9221,22.6241" id="Fill-6" fill="#32A6CE"></path>
                <path d="M63.1451,30.0801 C62.9221,30.9711 62.1431,31.3041 61.2531,31.4161 C60.4741,31.4161 59.8061,30.9711 60.2511,30.0801 C60.6971,29.4131 61.6991,29.4131 62.4771,29.4131 L63.3681,29.4131 C63.2561,29.3011 63.1451,29.7471 63.1451,30.0801 M58.4711,25.8511 C59.0281,25.6281 60.5851,25.1841 61.9201,25.0721 C63.2561,25.0721 64.0361,25.2951 63.8131,26.5191 C59.8061,26.5191 57.1351,27.2981 56.5791,29.9691 C55.8001,34.4211 60.6971,34.5321 62.5881,32.5281 L62.3661,33.7531 L65.9271,33.7531 L67.4851,26.5191 C68.1531,23.5141 65.3711,22.7351 62.9221,22.7351" id="Fill-8" fill="#1A80AD"></path>
                <polygon id="Fill-10" fill="#32A6CE" points="70.4899 19.2852 67.5959 33.7532 71.1579 33.7532 74.1629 19.2852"></polygon>
                <polygon id="Fill-12" fill="#1A80AD" points="73.0494 19.2852 67.5964 33.7532 71.1574 33.7532 74.1624 19.2852 70.4894 19.2852"></polygon>
                <path d="M53.7965,24.293 C53.5735,25.295 52.5725,25.962 51.5705,25.962 L49.7905,25.962 L50.5695,22.624 L52.4615,22.624 C53.4635,22.624 54.0195,23.292 53.7965,24.293 M53.9075,19.285 L47.3425,19.285 L44.4485,33.753 L48.3435,33.753 L49.3455,29.301 L52.1275,29.301 C54.7985,29.301 57.0245,27.743 57.5805,24.961 C58.1375,21.733 55.8005,19.285 53.9075,19.285" id="Fill-14" fill="#32A6CE"></path>
                <path d="M53.7965,24.293 C53.5735,25.295 52.5725,25.962 51.5705,25.962 L49.7905,25.962 L50.5695,22.624 L52.4615,22.624 C53.4635,22.624 54.0195,23.292 53.7965,24.293 M53.9075,19.285 L49.4565,19.285 L44.3375,33.753 L48.2325,33.753 L49.2345,29.301 L52.0165,29.301 C54.6875,29.301 56.9125,27.743 57.4695,24.961 C58.1375,21.733 55.8005,19.285 53.9075,19.285" id="Fill-16" fill="#1A80AD"></path>
                <path d="M28.5348,30.0801 C28.3118,30.9711 27.5328,31.3041 26.6418,31.4161 C25.8628,31.4161 25.1958,30.9711 25.7528,30.0801 C26.1968,29.4131 27.1988,29.4131 27.8668,29.4131 L28.7568,29.4131 C28.6448,29.3011 28.5348,29.7471 28.5348,30.0801 M28.2008,22.6241 C26.5308,22.6241 25.1958,23.0691 24.1938,23.2911 L23.8598,25.8511 C24.3058,25.6281 25.9738,25.1841 27.3098,25.0721 C28.6448,25.0721 29.4248,25.2951 29.2018,26.5191 C25.3068,26.5191 22.6368,27.2981 22.0798,29.9691 C21.3008,34.4211 26.0858,34.5321 27.9778,32.5281 L27.7558,33.7531 L31.3168,33.7531 L32.8748,26.5191 C33.4308,23.5141 30.6488,22.5131 28.2008,22.6241" id="Fill-18" fill="#21789E"></path>
                <path d="M28.5348,30.0801 C28.3118,30.9711 27.5328,31.3041 26.6418,31.4161 C25.8628,31.4161 25.1958,30.9711 25.7528,30.0801 C26.1968,29.4131 27.1988,29.4131 27.8668,29.4131 L28.7568,29.4131 C28.6448,29.3011 28.5348,29.7471 28.5348,30.0801 M23.9718,25.8511 C24.4168,25.6281 26.0858,25.1841 27.4218,25.0721 C28.7568,25.0721 29.5358,25.2951 29.3128,26.5191 C25.4188,26.5191 22.7478,27.2981 22.1908,29.9691 C21.4118,34.4211 26.1968,34.5321 28.0898,32.5281 L27.7558,33.7531 L31.3168,33.7531 L32.8748,26.5191 C33.5428,23.5141 30.7608,22.7351 28.3118,22.7351" id="Fill-20" fill="#1A5B80"></path>
                <polygon id="Fill-22" fill="#21789E" points="34.3209 22.6241 37.8829 22.6241 38.4389 28.8561 42.0009 22.6241 45.6729 22.6241 37.2149 38.2041 33.2089 38.2041 35.7679 33.5301"></polygon>
                <polyline id="Fill-24" fill="#1A5B80" points="37.8824 22.8463 38.4394 28.9673 42.0004 22.6243 45.6724 22.6243 37.2144 38.2043 33.2084 38.2043 35.7684 33.6413"></polyline>
                <path d="M19.2975,24.293 C19.0745,25.295 18.0725,25.962 17.0715,25.962 L15.2905,25.962 L16.0695,22.624 L17.9615,22.624 C18.9635,22.624 19.5205,23.292 19.2975,24.293 M19.4085,19.285 L12.7315,19.285 L9.8375,33.753 L13.7335,33.753 L14.7345,29.301 L17.5165,29.301 C20.1885,29.301 22.4135,27.743 22.9705,24.961 C23.6375,21.733 21.3005,19.285 19.4085,19.285" id="Fill-26" fill="#21789E"></path>
                <path d="M19.2975,24.293 C19.0745,25.295 18.0725,25.962 17.0715,25.962 L15.2905,25.962 L16.0695,22.624 L17.9615,22.624 C18.9635,22.624 19.5205,23.292 19.2975,24.293 M19.4085,19.285 L16.4035,19.285 L9.8375,33.753 L13.7335,33.753 L14.7345,29.301 L17.5165,29.301 C20.1885,29.301 22.4135,27.743 22.9705,24.961 C23.6375,21.733 21.3005,19.285 19.4085,19.285" id="Fill-28" fill="#1A5B80"></path>
                <path d="M28.5348,30.0801 C28.3118,30.9711 27.5328,31.3041 26.6418,31.4161 C25.8628,31.4161 25.1958,30.9711 25.7528,30.0801 C26.1968,29.4131 27.1988,29.4131 27.8668,29.4131 L28.7568,29.4131 C28.6448,29.3011 28.5348,29.7471 28.5348,30.0801 L28.5348,30.0801 Z M27.5328,26.5191 C24.5278,26.7421 22.5248,27.6321 22.0798,29.8571 C21.3008,34.3091 26.0858,34.4211 27.9778,32.4171 L27.7558,33.7531 L31.3168,33.7531 L31.8728,31.0821 L27.5328,26.5191 Z" id="Fill-30" fill="#06435E"></path>
                <polygon id="Fill-32" fill="#06435E" points="38.6617 28.7447 38.4387 29.0787 40.7757 31.3047 45.6727 22.6237 42.0007 22.6237"></polygon>
                <polygon id="Fill-34" fill="#06435E" points="13.733 33.753 14.734 29.301 10.171 33.753"></polygon>
                <polygon id="Fill-36" fill="#2273AA" points="48.2321 33.753 49.2341 29.079 49.2341 29.19 44.6711 33.753"></polygon>
                <path d="M63.1451,30.0801 C62.9221,30.9711 62.1431,31.3041 61.2531,31.4161 C60.4741,31.4161 59.8061,30.9711 60.2511,30.0801 C60.6971,29.4131 61.6991,29.4131 62.4771,29.4131 L63.3681,29.4131 C63.2561,29.3011 63.1451,29.7471 63.1451,30.0801 L63.1451,30.0801 Z M62.1431,26.5191 C59.1381,26.7421 57.1351,27.6321 56.6901,29.8571 C55.9121,34.3091 60.8081,34.4211 62.7001,32.4171 L62.3661,33.7531 L65.9271,33.7531 L66.4841,31.0821 L62.1431,26.5191 Z" id="Fill-38" fill="#2273AA"></path>
                <polygon id="Fill-40" fill="#2273AA" points="70.1569 27.1866 67.5959 33.7526 71.1579 33.7526 72.1599 29.3016"></polygon>
            </g>
        </g>
    </g>
</svg>