<svg xmlns="http://www.w3.org/2000/svg" width="46" height="34" viewBox="0 0 46 34"><path fill="#00940b" d="M3.97 0v3.49L1.59 3.3v3.29H0V34h46V6.59h-1.52zm1.58 1.89l21.26 3.46L5.55 3.62zM3.17 5.04l.8.07 5.35.43 12.86 1.05H3.17zm41.24 27.35H1.59V8.2h42.82z"/><path fill="#00940c" d="M5 15a3 3 0 0 0 3-3 3 3 0 0 0-3-3 3 3 0 0 0-3 3 3 3 0 0 0 3 3zm0-4.29a1.3 1.3 0 0 1 0 2.58 1.3 1.3 0 0 1 0-2.58zM38 12a3 3 0 0 0 3 3 3 3 0 0 0 3-3 3 3 0 0 0-3-3 3 3 0 0 0-3 3zm4.29 0a1.3 1.3 0 0 1-2.58 0 1.3 1.3 0 0 1 2.58 0zM5 25a3 3 0 0 0-3 3 3 3 0 0 0 3 3 3 3 0 0 0 3-3 3 3 0 0 0-3-3zm0 4.29a1.3 1.3 0 0 1 0-2.58 1.3 1.3 0 0 1 0 2.58zM41 25a3 3 0 0 0-3 3 3 3 0 0 0 3 3 3 3 0 0 0 3-3 3 3 0 0 0-3-3zm0 4.29a1.3 1.3 0 0 1 0-2.58 1.3 1.3 0 0 1 0 2.58z"/><path fill="#00940c" d="M25.02 30.81l.29-.05c.29-.06.58-.14.86-.22l.39-.13.5-.19.43-.17.46-.22.64-.34.09-.06h8.66l-.07-.86-.02-.32a3.56 3.56 0 0 1 3.89-3.52l.86.08v-9.62l-.86.08-.33.02a3.56 3.56 0 0 1-3.54-3.86l.07-.86h-8.66a11.05 11.05 0 0 0-11.36 0H8.65l.08.86.02.32c0 1.95-1.6 3.54-3.56 3.54l-.33-.02-.86-.08v9.62l.86-.08.33-.02a3.56 3.56 0 0 1 3.54 3.86l-.08.86h8.65l.38.22.12.06c.26.14.52.26.79.38l.18.07c.3.13.61.24.92.34l.02.01c.33.1.65.18.98.25l.24.04A9.5 9.5 0 0 0 23 31c.33 0 .67-.02 1-.05l.3-.03.72-.11zm-3.66-1.97a7.1 7.1 0 0 1-.94-.26l-.36-.12-.55-.23-.27-.12 2.17-1.02c.47-.22.76-.66.76-1.16v-1.29l-.49-.2c-1.05-.43-1.73-1.25-2.09-2.51l-.11-.42-.43-.12a.58.58 0 0 1-.43-.55v-.68c0-.24.17-.42.32-.5l.39-.19.04-.41a6.03 6.03 0 0 1 .68-2.23c.21-.44.31-.71.29-1.13.82.4 1.78.57 2.82.49l.33-.01c2.59 0 3.86.89 4.11 2.88l.05.41.38.19c.16.08.33.26.33.51v.67c0 .25-.17.47-.43.55l-.43.12-.12.42a3.53 3.53 0 0 1-2.08 2.51l-.5.2v1.3c0 .49.29.93.75 1.15l2.27 1.1-.09.05c-.29.12-.57.23-.87.33l-.1.04c-1.74.55-3.63.62-5.4.23zm8.95-16.97h4.97a5.1 5.1 0 0 0 4.77 4.58v6.15a5.08 5.08 0 0 0-4.77 4.57h-4.97l.03-.03c.14-.13.26-.27.39-.41.13-.13.26-.25.37-.39l.13-.16a10.37 10.37 0 0 0 2.37-5.49l.01-.08a9.82 9.82 0 0 0 0-2.18l-.01-.08a10.37 10.37 0 0 0-2.37-5.49l-.13-.16c-.11-.14-.24-.26-.37-.39a5 5 0 0 0-.39-.41l-.03-.03zm-2.36-.42a9.18 9.18 0 0 1 3.01 3.21l.17.28c.16.3.3.61.43.93l.12.36c.08.22.16.45.22.68l.1.39a16.18 16.18 0 0 1 .19 1.09 10.34 10.34 0 0 1 0 2.22l-.05.36-.14.73-.1.4a7.5 7.5 0 0 1-.22.67l-.13.37a8.42 8.42 0 0 1-1.21 2.15c-.15.21-.31.4-.47.59l-.21.23c-.36.39-.77.74-1.2 1.06-.13-.09-.26-.19-.41-.27l-2.39-1.26v-.14a5.09 5.09 0 0 0 2.27-3.01 2.2 2.2 0 0 0 1.09-1.9v-.69c0-.66-.3-1.28-.79-1.69-.32-1.9-1.54-3.99-5.36-3.99l-.43.02a3.16 3.16 0 0 1-2.7-1.03.89.89 0 0 0-1.06-.28.93.93 0 0 0-.55.97c.03.26.07.56.14.9.12.64.12.64-.05 1.01l-.25.6a7.74 7.74 0 0 0-.47 1.81 2.17 2.17 0 0 0-.77 1.68v.69c0 .8.42 1.52 1.08 1.9a5.1 5.1 0 0 0 2.28 3.01v.14l-2.48 1.26c-.08.04-.16.1-.23.15-.37-.29-.73-.6-1.05-.94l-.2-.23a13.5 13.5 0 0 1-1.1-1.54l-.16-.28c-.16-.3-.3-.61-.43-.92l-.13-.37A8.61 8.61 0 0 1 14 21.7c-.06-.24-.1-.49-.14-.73a10.02 10.02 0 0 1-.05-2.58l.05-.35.14-.74.1-.39c.06-.23.14-.46.22-.68l.13-.36c.12-.32.26-.63.42-.93l.17-.28a8.22 8.22 0 0 1 1.09-1.54l.21-.22a9.01 9.01 0 0 1 11.61-1.45zm-22 11.15v-6.15a5.1 5.1 0 0 0 4.77-4.58h4.97l-.03.03c-.14.13-.26.27-.39.41-.13.13-.26.25-.37.39l-.13.16a10.37 10.37 0 0 0-2.37 5.49l-.01.08a9.82 9.82 0 0 0 0 2.18l.01.08a10.37 10.37 0 0 0 2.5 5.65c.11.14.24.26.37.39a5 5 0 0 0 .39.41l.03.03h-4.97a5.08 5.08 0 0 0-4.77-4.57z"/></svg>