<svg xmlns="http://www.w3.org/2000/svg" width="22" height="28" viewBox="0 0 22 28"><defs><clipPath id="a"><path fill="#fff" d="M1152 696a3 3 0 0 1 3-3h12a3 3 0 0 1 3 3v17a3 3 0 0 1-3 3h-12a3 3 0 0 1-3-3z"/></clipPath><clipPath id="b"><path fill="#fff" d="M1148 701a3 3 0 0 1 3-3h12a3 3 0 0 1 3 3v17a3 3 0 0 1-3 3h-12a3 3 0 0 1-3-3z"/></clipPath></defs><path fill="none" stroke="#979797" stroke-miterlimit="50" stroke-width="4" d="M1152 696a3 3 0 0 1 3-3h12a3 3 0 0 1 3 3v17a3 3 0 0 1-3 3h-12a3 3 0 0 1-3-3z" clip-path="url(&quot;#a&quot;)" transform="translate(-1148 -693)"/><path fill="#fff" d="M0 8a3 3 0 0 1 3-3h12a3 3 0 0 1 3 3v17a3 3 0 0 1-3 3H3a3 3 0 0 1-3-3z"/><path fill="none" stroke="#979797" stroke-miterlimit="50" stroke-width="4" d="M1148 701a3 3 0 0 1 3-3h12a3 3 0 0 1 3 3v17a3 3 0 0 1-3 3h-12a3 3 0 0 1-3-3z" clip-path="url(&quot;#b&quot;)" transform="translate(-1148 -693)"/></svg>