<svg xmlns="http://www.w3.org/2000/svg" width="47" height="28" viewBox="0 0 47 28"><path d="M8.29 5H2.71c-.39 0-.71.22-.71.5s.32.5.71.5h5.58c.39 0 .71-.22.71-.5S8.68 5 8.29 5zM9.23 15H3.77c-.43 0-.77.22-.77.5s.34.5.77.5h5.46c.43 0 .77-.22.77-.5s-.34-.5-.77-.5zM7.24 11H.76c-.42 0-.76.22-.76.5s.34.5.76.5h6.48c.42 0 .76-.22.76-.5s-.34-.5-.76-.5zM7.29 21h-.58c-.39 0-.71.22-.71.5s.32.5.71.5h.58c.39 0 .71-.22.71-.5s-.32-.5-.71-.5z"/><path d="M7 21H.79c-.44 0-.79.22-.79.5s.35.5.79.5H7c.44 0 .5-.22.5-.5S7.44 21 7 21zM39.28 2.1h-6.36V.75a.76.76 0 0 0-.75-.75H15.5c-.41 0 1.5.09 1.5.5 0 .41-1.41 1-1 1h15.42v16.43c0 .1.02.21.06.3l-.06 4.27h-7.97a4.76 4.76 0 0 0-9.39 0H12.5v-21h5.03c.41 0 .75-.34.75-.75a.76.76 0 0 0-.75-.75h-5.78a.76.76 0 0 0-.75.75v22.5c0 .41.34.75.75.75h2.31a4.77 4.77 0 0 0 9.39 0H34.2a4.77 4.77 0 0 0 9.39 0h2.66c.41 0 .75-.34.75-.75V9.81a7.72 7.72 0 0 0-7.72-7.71zm-6.36 1.5h6.36a6.22 6.22 0 0 1 6.22 6.21V22.5h-1.91a4.76 4.76 0 0 0-9.39 0h-1.28l.08-6c0-.1-.03-.17-.08-.23zM18.76 26.5a3.26 3.26 0 0 1-3.26-3.25 3.26 3.26 0 0 1 6.51 0 3.26 3.26 0 0 1-3.25 3.25zm20.14 0a3.26 3.26 0 0 1-3.26-3.25 3.26 3.26 0 0 1 6.51 0 3.26 3.26 0 0 1-3.25 3.25z"/><path d="M39.07 5h-4.29a.78.78 0 0 0-.78.79v7.42c0 .44.35.79.78.79h8.44c.43 0 .78-.35.78-.79V9.96A4.95 4.95 0 0 0 39.07 5zm3.36 7.42h-6.86V6.58h3.5a3.37 3.37 0 0 1 3.36 3.38zM19 21a2 2 0 0 0-2 2c0 1.1.9 2 2 2a2 2 0 0 0 2-2 2 2 0 0 0-2-2zm0 2.45a.45.45 0 0 1-.45-.45c0-.25.2-.45.45-.45s.45.2.45.45-.2.45-.45.45zM39 21a2 2 0 0 0-2 2c0 1.1.9 2 2 2a2 2 0 0 0 2-2 2 2 0 0 0-2-2zm0 2.45a.45.45 0 0 1-.45-.45c0-.25.2-.45.45-.45s.45.2.45.45-.2.45-.45.45zM43 16c-.55 0-1 .3-1 .66v1.68c0 .36.45.66 1 .66s1-.3 1-.66v-1.68c0-.36-.45-.66-1-.66z"/></svg>