<svg xmlns="http://www.w3.org/2000/svg" width="30" height="27" viewBox="0 0 30 27"><path fill="#d80027" d="M29.78 7.15c-.85-4.32-3.91-7.1-7.84-7.1-2.2 0-4.58.91-6.91 2.63C12.67.91 10.29 0 8.06 0 4.13 0 1.05 2.81.22 7.17c-1.25 6.47 2.74 15.07 14.42 19.75.13.05.26.08.39.08.12 0 .25-.03.38-.08 11.65-4.78 15.61-13.36 14.37-19.77zM15.03 24.79C4.77 20.53 1.23 13.1 2.29 7.56c.62-3.3 2.9-5.46 5.77-5.46 1.94 0 4.12.94 6.29 2.73.39.32.93.32 1.32 0 2.18-1.74 4.33-2.65 6.27-2.65 2.87 0 5.12 2.11 5.77 5.38 1.06 5.49-2.46 12.89-12.68 17.23z"/></svg>