<svg xmlns="http://www.w3.org/2000/svg" width="19" height="17" viewBox="0 0 19 17"><path fill="#4a4a4a" d="M.61 2.81h3.17c.27.96 1.2 1.67 2.31 1.67 1.1 0 2.03-.71 2.3-1.67h9.92c.34 0 .61-.26.61-.57 0-.32-.27-.57-.61-.57H8.39A2.37 2.37 0 0 0 6.09 0C4.98 0 4.05.71 3.78 1.67H.61c-.34 0-.61.25-.61.57 0 .31.27.57.61.57zm5.48-1.67c.64 0 1.17.49 1.17 1.1 0 .61-.53 1.1-1.17 1.1-.65 0-1.18-.49-1.18-1.1 0-.61.53-1.1 1.18-1.1zM18.31 7.67h-4.04A2.37 2.37 0 0 0 11.96 6c-1.1 0-2.03.71-2.3 1.67H.61c-.34 0-.61.25-.61.57 0 .31.27.57.61.57h9.05c.27.96 1.2 1.67 2.3 1.67 1.11 0 2.04-.71 2.31-1.67h4.04c.34 0 .61-.26.61-.57 0-.32-.27-.57-.61-.57zm-6.35 1.67c-.64 0-1.17-.49-1.17-1.1 0-.61.53-1.1 1.17-1.1.65 0 1.18.49 1.18 1.1 0 .61-.53 1.1-1.18 1.1zM18.31 13.67H8.39A2.37 2.37 0 0 0 6.09 12c-1.11 0-2.04.71-2.31 1.67H.61c-.34 0-.61.25-.61.57 0 .31.27.57.61.57h3.17c.27.96 1.2 1.67 2.31 1.67 1.1 0 2.03-.71 2.3-1.67h9.92c.34 0 .61-.26.61-.57 0-.32-.27-.57-.61-.57zM6.09 15.34c-.65 0-1.18-.49-1.18-1.1 0-.61.53-1.1 1.18-1.1.64 0 1.17.49 1.17 1.1 0 .61-.53 1.1-1.17 1.1z"/></svg>