<svg xmlns="http://www.w3.org/2000/svg" width="35" height="34" viewBox="0 0 35 34"><path fill="#fac176" d="M34.01 21.47c-.74-1.08-1.35-1.34-3.92.08l-5.11 3.31c-.58.33-1.52.5-2.55.58l.01.04a.6.6 0 0 1-.59.62H11.83c-1.76 0-1.76.94-1.76 1.25a.6.6 0 0 1-.59.62.6.6 0 0 1-.59-.62c0-1.56 1.1-2.49 2.94-2.49h8.39c.31-.35.36-.89-.16-1.71a4.4 4.4 0 0 0-3.74-2.05h-2.3a5.97 5.97 0 0 1-3.73-1.27C7.8 17.84 3 18 3 18v14.96h8.25c1.17 0 2.35-.09 3.51-.28l7.68-1.24c.26 0 .51-.03.76-.09h.01a2.92 2.92 0 0 0 1.64-.88l8.95-7.38c.46-.4.55-1.11.21-1.62"/><path fill="#2c91d0" d="M18.67 24.01L18 24s.28.04.67.01"/><path fill="#e2ac69" d="M8 27.26c0 .45.26.82.59.82.33 0 .59-.37.59-.82 0-.4 0-1.63 1.77-1.63h10.03c.33 0 .59-.36.59-.81l-.01-.06c-1.46.16-3.13.09-4.28.06-.35.02-.6 0-.6 0h.6c.64-.02 1.62-.17 2.07-.82h-8.4C9.1 24 8 25.22 8 27.26"/><path fill="#e4af18" d="M28.5 4.76a4.76 4.76 0 1 1-9.51 0 4.76 4.76 0 0 1 9.51 0M13.26 20.28c.37.06.75.1 1.14.1h2.31c.38 0 .75.05 1.11.14a5.04 5.04 0 0 0 2.68-4.51A4.89 4.89 0 0 0 15.75 11 4.89 4.89 0 0 0 11 16.01c0 1.81.9 3.38 2.26 4.27"/><path fill="#fcc62d" d="M19.43 16.72a2.72 2.72 0 1 1 0 0M27.43 5.72a2.72 2.72 0 1 1 0 0"/><path fill="#556180" d="M0 34V16h3v18z"/></svg>