<svg xmlns="http://www.w3.org/2000/svg" width="34" height="35" viewBox="0 0 34 35"><path fill="#ffda44" d="M5.58 6.9c-.46.67-.78.79-.78.23V6.1c0-1.46-1.08-2.66-2.4-2.66C1.07 3.44 0 4.64 0 6.1v9.12c0 1.47 1.07 2.66 2.4 2.66h8.22c1.32 0 2.4-1.19 2.4-2.66 0-1.47-1.08-2.66-2.4-2.66h-.89c-.49 0-.63-.62-.21-1.32a10.11 10.11 0 0 1 8.61-5.16c5.68 0 10.3 5.12 10.3 11.42s-4.62 11.42-10.3 11.42c-1.51 0-2.74 1.36-2.74 3.04S16.62 35 18.13 35c8.7 0 15.78-7.85 15.78-17.5S26.83 0 18.13 0c-4.97 0-9.6 2.62-12.55 6.9z"/></svg>