<svg xmlns="http://www.w3.org/2000/svg" width="34" height="36" viewBox="0 0 34 36"><path fill="#aff078" d="M32.99 0H5.53A.55.55 0 0 0 5 .56v15.03c0 .31.24.56.53.56h27.46c.29 0 .52-.25.52-.56V.56c0-.31-.23-.56-.52-.56z"/><path fill="#5ac779" d="M7.59 15.58V.56c0-.31.25-.56.55-.56H5.55C5.25 0 5 .25 5 .56v15.02c0 .31.25.56.55.56h2.59a.56.56 0 0 1-.55-.56zM20.39 2A6.5 6.5 0 0 0 14 8.57a6.5 6.5 0 0 0 6.39 6.57 6.49 6.49 0 0 0 6.39-6.57A6.49 6.49 0 0 0 20.39 2z"/><path fill="#00a085" d="M21.18 12.88c-3.41 0-6.17-2.91-6.17-6.48 0-1.24.33-2.41.92-3.4A6.54 6.54 0 0 0 13 8.51c0 3.57 2.77 6.47 6.17 6.47a6.13 6.13 0 0 0 5.25-3.07c-.94.61-2.06.97-3.24.97zM32.04 4.11h-4.51a.54.54 0 0 1-.53-.55c0-.31.24-.56.53-.56h4.51c.29 0 .53.25.53.56 0 .3-.24.55-.53.55zM31.91 6.11h-3.38a.54.54 0 0 1-.53-.55c0-.31.24-.56.53-.56h3.38c.3 0 .53.25.53.56 0 .3-.23.55-.53.55zM12.04 4.11H7.53A.54.54 0 0 1 7 3.56c0-.31.24-.56.53-.56h4.51c.29 0 .53.25.53.56 0 .3-.24.55-.53.55zM10.91 6.11H7.53A.54.54 0 0 1 7 5.56c0-.31.24-.56.53-.56h3.38c.3 0 .53.25.53.56 0 .3-.23.55-.53.55zM31.22 14.11h-1.69a.54.54 0 0 1-.53-.55c0-.31.24-.56.53-.56h1.69c.29 0 .53.25.53.56 0 .3-.24.55-.53.55zM27.22 14.11h-1.69a.54.54 0 0 1-.53-.55c0-.31.24-.56.53-.56h1.69c.29 0 .53.25.53.56 0 .3-.24.55-.53.55zM10.38 10.89c-.76 0-1.38-.65-1.38-1.45C9 8.65 9.62 8 10.38 8c.75 0 1.37.65 1.37 1.44 0 .8-.62 1.45-1.37 1.45zm0-1.78a.32.32 0 0 0-.32.33c0 .19.14.34.32.34.17 0 .31-.15.31-.34 0-.18-.14-.33-.31-.33zM29.38 10.89c-.76 0-1.38-.65-1.38-1.45 0-.79.62-1.44 1.38-1.44.75 0 1.37.65 1.37 1.44 0 .8-.62 1.45-1.37 1.45zm0-1.78a.32.32 0 0 0-.32.33c0 .19.14.34.32.34.17 0 .31-.15.31-.34 0-.18-.14-.33-.31-.33z"/><path fill="#aff078" d="M22.86 6.45c.31 0 .57-.26.57-.59a.58.58 0 0 0-.57-.59h-1.57v-.68a.59.59 0 0 0-.57-.59.59.59 0 0 0-.58.59v.68h-.5c-.73 0-1.33.62-1.33 1.38v1.27c0 .76.6 1.39 1.33 1.39h.5v1.66h-1.57a.58.58 0 0 0-.57.59c0 .33.26.6.57.6h1.57v.67c0 .33.26.59.58.59.31 0 .57-.26.57-.59v-.67h.5c.73 0 1.34-.63 1.34-1.39V9.5c0-.76-.61-1.38-1.34-1.38h-.5V6.45zm-.88 3.05v1.27c0 .11-.09.2-.19.2h-.5V9.31h.5c.1 0 .19.08.19.19zm-1.84-1.38h-.5c-.1 0-.19-.09-.19-.2V6.65c0-.11.09-.2.19-.2h.5z"/><path fill="#ffd652" d="M20.23 12H1.49C.67 12 0 12.74 0 13.66v12.83c0 .92.67 1.66 1.49 1.66h18.74c.82 0 1.49-.74 1.49-1.66V13.66c0-.92-.67-1.66-1.49-1.66z"/><path fill="#5ac779" d="M0 19v-3h22v3z"/><path fill="#fb9d46" d="M2.55 26.49V13.66c0-.92.68-1.66 1.52-1.66H1.53C.69 12 0 12.74 0 13.66v12.83c0 .92.69 1.66 1.53 1.66h2.54c-.84 0-1.52-.74-1.52-1.66z"/><path fill="#ff7452" d="M16.8 24.35h-4.17c-.35 0-.63-.31-.63-.68 0-.37.28-.67.63-.67h4.17c.35 0 .63.3.63.67 0 .37-.28.68-.63.68z"/><path fill="#00a085" d="M0 19v-3h3v3z"/><path fill="#fff" d="M4.51 22.69h13.92c.28 0 .51-.25.51-.56v-1.57c0-.31-.23-.56-.51-.56H4.51c-.28 0-.51.25-.51.56v1.57c0 .31.23.56.51.56z"/><path fill="#e5e5e5" d="M24.11 15C20.74 15 18 17.6 18 20.8v2.3c0 .73.63 1.32 1.39 1.32.77 0 1.4-.59 1.4-1.32v-2.3a3.25 3.25 0 0 1 3.32-3.16 3.25 3.25 0 0 1 3.32 3.16v2.17c0 .72.63 1.32 1.4 1.32.77 0 1.39-.6 1.39-1.32V20.8c0-3.2-2.74-5.8-6.11-5.8z"/><path fill="#b2b2b2" d="M18 22.28c0 .9.61 1.62 1.36 1.62.75 0 1.37-.72 1.37-1.62V20H18zM27 20v2.12c0 .89.61 1.62 1.36 1.62.75 0 1.37-.73 1.37-1.62V20z"/><path fill="#ff7452" d="M27.28 23h-9.63A2.6 2.6 0 0 0 15 25.54v9.07c0 .28.24.51.53.51H29.4c.3 0 .54-.23.54-.51v-9.07A2.6 2.6 0 0 0 27.28 23z"/><path fill="#e24642" d="M17.73 34.61v-9.07c0-1.4 1.21-2.54 2.7-2.54H17.7c-1.49 0-2.7 1.14-2.7 2.54v9.07c0 .28.24.51.54.51h2.73c-.29 0-.54-.23-.54-.51z"/><path fill="#5ac779" d="M23.75 23A4.73 4.73 0 0 0 19 27.71c0 2.6 2.13 4.71 4.75 4.71a4.73 4.73 0 0 0 4.75-4.71c0-2.6-2.13-4.71-4.75-4.71z"/><path fill="#00a085" d="M24.82 31.36c-2.16-.16-3.9-2.17-4.04-4.67-.05-.98.14-1.9.51-2.69A5.18 5.18 0 0 0 19 28.42c0 2.76 1.94 5 4.33 5a4.3 4.3 0 0 0 3.82-2.64c-.69.42-1.49.64-2.33.58z"/><path fill="#aff078" d="M24.13 29.69a.78.78 0 0 1-.47-.15l-1.5-1.26c-.23-.19-.21-.48.05-.66a.77.77 0 0 1 .88.04l1.09.9 2.21-1.44a.8.8 0 0 1 .89.04c.22.2.2.49-.06.66l-2.68 1.76a.81.81 0 0 1-.41.11z"/></svg>