<svg xmlns="http://www.w3.org/2000/svg" width="62" height="62" viewBox="0 0 62 62"><path fill="#46b29d" d="M31.84 5L1.77 35.3a2.61 2.61 0 0 0 0 3.71l21.24 21.22a2.61 2.61 0 0 0 3.71 0L56 30.18V5zm13.78 14.52a4.15 4.15 0 1 1 0-8.3 4.15 4.15 0 0 1 0 8.3z"/><path fill="#28685c" d="M46 6c-4.42 0-8 3.81-8 8.5 0 4.69 3.58 8.5 8 8.5s8-3.81 8-8.5C54 9.81 50.42 6 46 6zm0 12.75c-2.21 0-4-1.9-4-4.25s1.79-4.25 4-4.25 4 1.9 4 4.25-1.79 4.25-4 4.25z"/><path fill="#fdd7ad" d="M46 17a.96.96 0 0 1-.71-.31 1.1 1.1 0 0 1 0-1.5l14-14.88a.97.97 0 0 1 1.42 0 1.1 1.1 0 0 1 0 1.5l-14 14.88A.96.96 0 0 1 46 17z"/><path fill="#fff" d="M24.79 46a7.99 7.99 0 0 1-5.51-2.18 7.23 7.23 0 0 1 0-10.54 1.08 1.08 0 0 1 1.48 0 .96.96 0 0 1 0 1.41 5.3 5.3 0 0 0 0 7.71 5.81 5.81 0 0 0 4.51 1.58 3.11 3.11 0 0 0 2.15-1.11c.58-.68.85-1.57.74-2.44l-1.39-10.61a5.13 5.13 0 0 1 1.18-3.96 5.23 5.23 0 0 1 3.61-1.83c2.29-.19 4.54.6 6.16 2.15a7.23 7.23 0 0 1 0 10.54c-.41.39-1.07.39-1.48 0a.96.96 0 0 1 0-1.41 5.3 5.3 0 0 0 0-7.71 5.8 5.8 0 0 0-4.51-1.58 3.2 3.2 0 0 0-2.89 3.55l1.39 10.61A5.2 5.2 0 0 1 24.79 46z"/><path fill="#fff" d="M18.01 45a.98.98 0 0 1-.71-.3.99.99 0 0 1 0-1.42L36.28 24.3a.99.99 0 0 1 1.42 0c.4.39.4 1.03 0 1.42L18.72 44.7a1 1 0 0 1-.71.3z"/></svg>