<svg xmlns="http://www.w3.org/2000/svg" width="35" height="37" viewBox="0 0 35 37"><path fill="#46b29d" d="M18.53 4L1.44 21.48a1.51 1.51 0 0 0 0 2.14l12.07 12.24c.58.6 1.53.6 2.11 0l16.64-17.33V4zm7.83 8.38A2.39 2.39 0 0 1 24 9.98a2.38 2.38 0 0 1 2.36-2.39 2.37 2.37 0 0 1 2.36 2.39c0 1.32-1.05 2.4-2.36 2.4z"/><path fill="#28685c" d="M25.76 5A4.74 4.74 0 0 0 21 9.71c0 2.6 2.13 4.71 4.76 4.71a4.73 4.73 0 0 0 4.75-4.71c0-2.6-2.13-4.71-4.75-4.71zm0 7.07a2.37 2.37 0 0 1-2.38-2.36c0-1.3 1.06-2.35 2.38-2.35a2.37 2.37 0 0 1 2.38 2.35c0 1.3-1.07 2.36-2.38 2.36z"/><path fill="#fdd7ad" d="M25.59 10.42a.59.59 0 0 1-.42-1l8.33-8.25a.6.6 0 0 1 .84 0 .6.6 0 0 1 0 .84l-8.32 8.24a.59.59 0 0 1-.43.17z"/><path fill="#fff" d="M15.6 26.12a4.86 4.86 0 0 1-3.25-1.21 3.79 3.79 0 0 1 0-5.8.66.66 0 0 1 .87 0c.24.21.24.56 0 .78a2.78 2.78 0 0 0 0 4.24c.7.63 1.68.95 2.67.87.49-.03.95-.25 1.27-.61.34-.37.5-.86.43-1.34l-.82-5.84c-.11-.78.15-1.58.7-2.18.54-.59 1.3-.95 2.13-1.02 1.36-.1 2.69.34 3.65 1.19a3.81 3.81 0 0 1 0 5.81.7.7 0 0 1-.88 0 .51.51 0 0 1 0-.78 2.78 2.78 0 0 0 0-4.25 3.6 3.6 0 0 0-2.66-.87c-.5.04-.95.26-1.28.61-.34.38-.5.87-.43 1.35l.82 5.84a2.7 2.7 0 0 1-.7 2.18c-.54.59-1.29.95-2.13 1.01l-.39.02z"/><path fill="#fff" d="M11.59 26.12a.6.6 0 0 1-.42-.18.57.57 0 0 1 0-.82l11.06-10.95c.23-.23.6-.23.83 0 .23.23.23.6 0 .82L12 25.94a.55.55 0 0 1-.41.18z"/></svg>