<svg xmlns="http://www.w3.org/2000/svg" width="65" height="65" viewBox="0 0 65 65"><path fill="#aff078" d="M63.97 0H10.03C9.46 0 9 .45 9 1.01v26.98c0 .56.46 1.01 1.03 1.01h53.94c.57 0 1.03-.45 1.03-1.01V1.01C65 .45 64.54 0 63.97 0z"/><path fill="#5ac779" d="M13.85 27.97V1.01c0-.56.46-1.01 1.02-1.01h-4.85C9.46 0 9 .45 9 1.01v26.96c0 .55.46 1.01 1.02 1.01h4.85c-.56 0-1.02-.46-1.02-1.01zM36.95 3A11.88 11.88 0 0 0 25 14.79c0 6.51 5.36 11.8 11.95 11.8 6.59 0 11.95-5.29 11.95-11.8C48.9 8.29 43.54 3 36.95 3z"/><path fill="#00a085" d="M42.77 22.94c-6.56 0-11.9-5.28-11.9-11.76 0-2.27.65-4.38 1.78-6.18A11.72 11.72 0 0 0 27 15c0 6.48 5.34 11.76 11.9 11.76 4.27 0 8.03-2.24 10.13-5.58a12 12 0 0 1-6.26 1.76zM61.73 7.02h-8.71c-.56 0-1.02-.46-1.02-1.01 0-.56.46-1.01 1.02-1.01h8.71c.56 0 1.02.45 1.02 1.01 0 .55-.46 1.01-1.02 1.01zM61.55 11.02h-6.53c-.56 0-1.02-.46-1.02-1.01 0-.56.46-1.01 1.02-1.01h6.53c.56 0 1.02.45 1.02 1.01 0 .55-.46 1.01-1.02 1.01zM23.73 7.02h-8.71c-.56 0-1.02-.46-1.02-1.01 0-.56.46-1.01 1.02-1.01h8.71c.56 0 1.02.45 1.02 1.01 0 .55-.46 1.01-1.02 1.01zM21.55 11.02h-6.53c-.56 0-1.02-.46-1.02-1.01 0-.56.46-1.01 1.02-1.01h6.53c.56 0 1.02.45 1.02 1.01 0 .55-.46 1.01-1.02 1.01zM62.29 26.02h-3.27c-.56 0-1.02-.46-1.02-1.01 0-.56.46-1.01 1.02-1.01h3.27c.56 0 1.02.45 1.02 1.01 0 .55-.46 1.01-1.02 1.01zM54.29 26.02h-3.27c-.56 0-1.02-.46-1.02-1.01 0-.56.46-1.01 1.02-1.01h3.27c.56 0 1.02.45 1.02 1.01 0 .55-.46 1.01-1.02 1.01zM19.65 20.24A2.64 2.64 0 0 1 17 17.62 2.64 2.64 0 0 1 19.65 15a2.64 2.64 0 0 1 2.66 2.62 2.64 2.64 0 0 1-2.66 2.62zm0-3.22a.61.61 0 0 0-.61.6.61.61 0 0 0 1.22 0 .6.6 0 0 0-.61-.6zM56.65 20.24A2.64 2.64 0 0 1 54 17.62 2.64 2.64 0 0 1 56.65 15a2.64 2.64 0 0 1 2.66 2.62 2.64 2.64 0 0 1-2.66 2.62zm0-3.22a.61.61 0 0 0-.61.6.61.61 0 0 0 1.22 0 .6.6 0 0 0-.61-.6z"/><path fill="#aff078" d="M41.05 10.17c.52 0 .95-.45.95-1.01s-.43-1.01-.95-1.01h-2.6V7.01c0-.56-.42-1.01-.95-1.01-.52 0-.95.45-.95 1.01v1.14h-.82c-1.23 0-2.22 1.06-2.22 2.35v2.16c0 1.29.99 2.35 2.22 2.35h.82v2.82h-2.6c-.52 0-.95.45-.95 1.01s.43 1.01.95 1.01h2.6v1.14c0 .56.42 1.01.95 1.01.52 0 .95-.45.95-1.01v-1.14h.82c1.23 0 2.22-1.06 2.22-2.35v-2.16c0-1.29-.99-2.35-2.22-2.35h-.82v-2.82zm-1.46 5.17v2.16c0 .18-.14.33-.32.33h-.82v-2.82h.82c.18 0 .32.15.32.33zm-3.04-2.35h-.82a.32.32 0 0 1-.32-.33V10.5c0-.18.14-.33.32-.33h.82z"/><path fill="#ffd652" d="M40.97 21H3.03A3.06 3.06 0 0 0 0 24.08v23.84C0 49.62 1.36 51 3.03 51h37.94A3.06 3.06 0 0 0 44 47.92V24.08c0-1.7-1.36-3.08-3.03-3.08z"/><path fill="#5ac779" d="M0 34v-5h44v5z"/><path fill="#fb9d46" d="M5 47.92V24.08C5 22.38 6.35 21 8 21H3c-1.65 0-3 1.38-3 3.08v23.84C0 49.62 1.35 51 3 51h5c-1.65 0-3-1.38-3-3.08z"/><path fill="#ff7452" d="M29.96 47h-6.92c-.57 0-1.04-.67-1.04-1.5s.46-1.5 1.04-1.5h6.92c.57 0 1.04.67 1.04 1.5s-.47 1.5-1.04 1.5z"/><path fill="#00a085" d="M0 34v-5h5v5z"/><path fill="#fff" d="M8.02 43h27.96c.56 0 1.02-.47 1.02-1.04v-2.92c0-.57-.46-1.04-1.02-1.04H8.02C7.46 38 7 38.47 7 39.04v2.92c0 .57.46 1.04 1.02 1.04z"/><path fill="#e5e5e5" d="M44.5 26A11.6 11.6 0 0 0 33 37.69v4.64A2.65 2.65 0 0 0 35.62 45c1.45 0 2.63-1.2 2.63-2.67v-4.64a6.3 6.3 0 0 1 6.25-6.36 6.3 6.3 0 0 1 6.25 6.36v4.37a2.65 2.65 0 0 0 2.63 2.67c1.44 0 2.62-1.2 2.62-2.67v-4.37A11.6 11.6 0 0 0 44.5 26z"/><path fill="#b2b2b2" d="M33 42.39c0 1.33 1.17 2.41 2.61 2.41 1.43 0 2.6-1.08 2.6-2.41V39H33zM51 39v3.15c0 1.32 1.17 2.4 2.61 2.4 1.43 0 2.6-1.08 2.6-2.4V39z"/><path fill="#ff7452" d="M52.85 41h-18.7A5.1 5.1 0 0 0 29 46.03v17.96c0 .56.46 1.01 1.03 1.01h26.94c.57 0 1.03-.45 1.03-1.01V46.03A5.1 5.1 0 0 0 52.85 41z"/><path fill="#e24642" d="M34.03 63.99V46.03A5 5 0 0 1 39 41h-5.03A5 5 0 0 0 29 46.03v17.96a1 1 0 0 0 .99 1.01h5.04a1 1 0 0 1-1-1.01z"/><path fill="#5ac779" d="M43.5 44a8.5 8.5 0 1 0 .01 17.01A8.5 8.5 0 0 0 43.5 44z"/><path fill="#00a085" d="M46.43 57.5A8.48 8.48 0 0 1 39.5 45 8.5 8.5 0 1 0 51 56.5a8.48 8.48 0 0 1-4.57 1z"/><path fill="#aff078" d="M43.53 56c-.28 0-.57-.1-.77-.29l-2.49-2.32c-.39-.36-.35-.91.07-1.24a1.19 1.19 0 0 1 1.47.07l1.81 1.69 3.66-2.69a1.17 1.17 0 0 1 1.46.08c.38.36.34.91-.09 1.23l-4.44 3.25a1.1 1.1 0 0 1-.68.22z"/></svg>