<svg xmlns="http://www.w3.org/2000/svg" width="29" height="29" viewBox="0 0 29 29"><path fill="#f9ba48" d="M14.53 14h-.16a5.83 5.83 0 0 1-3.87 1.5c-1.46 0-2.8-.56-3.87-1.5H2v8h17v-8z"/><path fill="#333" d="M27.09 24.76v-.94h.47a.47.47 0 1 1 0 .94zm-.93 0h-.14a3.27 3.27 0 0 0-5.47-1.35v-4.72h5.61zm-5.61.93a2.33 2.33 0 1 1 4.67 0 2.33 2.33 0 0 1-4.67 0zM7.47 22.42c-1.47 0-2.72.99-3.13 2.34H2.8V9.81h1.55a7.02 7.02 0 0 0 6.86 5.61 7.03 7.03 0 0 0 6.87-5.61h1.54v14.95h-9.01a3.3 3.3 0 0 0-3.14-2.34zm-2.33 3.27a2.33 2.33 0 1 1 4.66 0 2.33 2.33 0 0 1-4.66 0zm-3.27-.93H1.4a.47.47 0 1 1 0-.94h.47zM17.28 8.41a6.07 6.07 0 1 1-12.15 0 6.07 6.07 0 0 1 12.15 0zm6.59 5.6l.37 3.74h-3.69v-3.74zm3.22 8.88v-5.14h-1.91l-.47-4.67h-4.16v-4.2h-2.36c.01-.16.03-.31.03-.47 0-1.88-.75-3.59-1.96-4.85l.32-.33.84.84.66-.66-2.33-2.34-.66.66.83.84-.36.36a6.9 6.9 0 0 0-3.88-1.5v-.5h1.4V0H9.34v.93h1.4v.5a6.9 6.9 0 0 0-3.88 1.5l-.36-.36.84-.84-.66-.66-2.34 2.34.66.66.84-.84.33.33A6.95 6.95 0 0 0 4.2 8.41c0 .16.02.31.03.47H1.87v14.01H1.4c-.77 0-1.4.63-1.4 1.4 0 .77.63 1.4 1.4 1.4h2.8a3.27 3.27 0 0 0 6.54 0h8.88a3.27 3.27 0 0 0 6.54 0h1.4c.77 0 1.4-.63 1.4-1.4 0-.77-.63-1.4-1.4-1.4z"/><path fill="#333" d="M6.67 25c0-.18.15-.33.33-.33.18 0 .33.15.33.33 0 .18-.15.33-.33.33a.33.33 0 0 1-.33-.33zM6 25a1 1 0 0 0 1 1 1 1 0 0 0 1-1 1 1 0 0 0-1-1 1 1 0 0 0-1 1zM21.67 25c0-.18.15-.33.33-.33.18 0 .33.15.33.33 0 .18-.15.33-.33.33a.33.33 0 0 1-.33-.33zM21 25a1 1 0 0 0 1 1 1 1 0 0 0 1-1 1 1 0 0 0-1-1 1 1 0 0 0-1 1zM11.61 9.05a.47.47 0 0 1-.47-.47c0-.26.21-.48.47-.48a.48.48 0 0 1 0 .95zm0 .95c.76 0 1.39-.64 1.39-1.42 0-.79-.63-1.43-1.39-1.43-.08 0-.16.02-.23.03L8.71 4 8 4.62l2.55 3.04A1.41 1.41 0 0 0 11.61 10zM10.92 14l.08-.98a4.44 4.44 0 0 1-2.91-7.36L7.36 5a5.43 5.43 0 0 0 3.56 9"/></svg>