<svg xmlns="http://www.w3.org/2000/svg" width="57" height="57" viewBox="0 0 57 57"><path fill="#f9ba48" d="M29.05 27h-.32a12.08 12.08 0 0 1-15.46 0H4v15h34V27z"/><path fill="#333" d="M53.25 48.66v-1.83h.92a.92.92 0 0 1 0 1.83zm-1.83 0h-.27a6.44 6.44 0 0 0-10.75-2.65v-9.28h11.02zM40.4 50.5a4.6 4.6 0 1 1 9.2.01 4.6 4.6 0 0 1-9.2-.01zm-25.71-6.43a6.45 6.45 0 0 0-6.16 4.59H5.51V19.28h3.03a13.8 13.8 0 0 0 13.5 11.02 13.8 13.8 0 0 0 13.49-11.02h3.03v29.38H20.85a6.44 6.44 0 0 0-6.16-4.59zM10.1 50.5a4.6 4.6 0 1 1 9.2.01 4.6 4.6 0 0 1-9.2-.01zm-6.43-1.84h-.92a.92.92 0 0 1 0-1.83h.92zm30.3-32.13a11.94 11.94 0 1 1-23.88-.02 11.94 11.94 0 0 1 23.88.02zm12.94 11.02l.74 7.34H40.4v-7.34zm6.34 17.44v-10.1h-3.76l-.91-9.18H40.4v-8.26h-4.64c.02-.31.05-.61.05-.92 0-3.7-1.48-7.06-3.86-9.54l.65-.64 1.64 1.64 1.3-1.29-4.59-4.59-1.3 1.29 1.65 1.65-.71.7a13.67 13.67 0 0 0-7.64-2.95v-.96h2.76V0h-7.35v1.84h2.76v.96a13.7 13.7 0 0 0-7.64 2.95l-.7-.7 1.64-1.65-1.3-1.29L8.53 6.7l1.3 1.29 1.65-1.64.64.64a13.75 13.75 0 0 0-3.86 9.54c0 .31.03.61.05.92H3.67v27.54h-.92a2.76 2.76 0 0 0 0 5.51h5.51a6.44 6.44 0 0 0 6.43 6.43 6.44 6.44 0 0 0 6.43-6.43h17.44a6.44 6.44 0 0 0 6.43 6.43 6.44 6.44 0 0 0 6.43-6.43h2.75a2.77 2.77 0 0 0 2.76-2.76 2.76 2.76 0 0 0-2.76-2.75z"/><path fill="#333" d="M13.67 49.5a.83.83 0 1 1 1.66 0 .83.83 0 1 1-1.66 0zm-1.67 0a2.5 2.5 0 1 0 5 0 2.5 2.5 0 0 0-5 0zM43.67 49.5a.83.83 0 1 1 1.66 0 .83.83 0 1 1-1.66 0zm-1.67 0a2.5 2.5 0 1 0 5 0 2.5 2.5 0 0 0-5 0zM22.21 18.1a.94.94 0 0 1-.93-.95c0-.52.42-.94.93-.94s.93.42.93.94c0 .53-.42.95-.93.95zm0 1.9A2.82 2.82 0 0 0 25 17.15a2.82 2.82 0 0 0-2.79-2.84c-.16 0-.31.02-.46.05L16.41 8 15 9.23l5.1 6.08c-.41.5-.68 1.14-.68 1.84A2.82 2.82 0 0 0 22.21 20z"/><path fill="#333" d="M21.84 27l.16-1.86c-4.51-.35-8.05-4.02-8.05-8.34 0-2.05.79-4.02 2.23-5.56L14.72 10A9.99 9.99 0 0 0 12 16.8c0 5.29 4.32 9.77 9.84 10.2"/></svg>