<svg xmlns="http://www.w3.org/2000/svg" width="58" height="56" viewBox="0 0 58 56"><path fill="#fac176" d="M57.65 34.57c-1.26-1.74-2.3-2.15-6.65.13l-8.67 5.31c-.99.52-2.58.79-4.34.93l.01.07a1 1 0 0 1-1 1H20c-3 0-3 1.5-3 2a1 1 0 0 1-1 1 1 1 0 0 1-1-1c0-2.51 1.87-4 5-4h14.24c.53-.56.62-1.42-.27-2.74a7.61 7.61 0 0 0-6.35-3.29h-3.9c-2.28 0-4.52-.68-6.33-2.05C13.15 28.74 5 29.01 5 29.01v24h14c2 0 3.99-.15 5.97-.46L38 50.57c.44 0 .88-.05 1.3-.14l.02-.01a5.05 5.05 0 0 0 2.78-1.41l15.2-11.84c.77-.64.93-1.78.35-2.6"/><path fill="#2c91d0" d="M31.01 41.01L30 41s.42.03 1.01.01"/><path fill="#e2ac69" d="M15 44a1 1 0 0 0 1 1 1 1 0 0 0 1-1c0-.49 0-2 3-2h17a1 1 0 0 0 1-1l-.01-.07c-2.49.2-5.31.11-7.27.08-.59.02-1-.01-1-.01l1 .01c1.09-.03 2.75-.22 3.52-1.01H20c-3.13 0-5 1.5-5 4"/><path fill="#e4af18" d="M49 8a8 8 0 1 1-16 0 8 8 0 0 1 16 0M21.81 33.8c.63.11 1.26.17 1.91.17h3.9c.63 0 1.26.08 1.87.22a8 8 0 1 0-7.68-.39"/><path fill="#fcc62d" d="M30 27a4 4 0 1 1-8 0 4 4 0 0 1 8 0M45 8a4 4 0 1 1-8 0 4 4 0 0 1 8 0"/><path fill="#556180" d="M0 56V26h5v30z"/></svg>