<svg xmlns="http://www.w3.org/2000/svg" width="10.5" height="8.39" viewBox="0 0 10.5 8.39"><path fill="#a4a4a4" d="M9.85 4.2H.65c-.22 0-.4.15-.4.36 0 .2.18.36.4.36h9.2c.22 0 .4-.16.4-.36 0-.2-.18-.37-.4-.37z"/><path fill="none" stroke="#979797" stroke-miterlimit="50" stroke-width=".5" d="M9.85 4.2H.65c-.22 0-.4.15-.4.36 0 .2.18.36.4.36h9.2c.22 0 .4-.16.4-.36 0-.2-.18-.37-.4-.37z"/><path fill="#a4a4a4" d="M1.23 4.68l3.16-2.87a.35.35 0 0 0 0-.5.42.42 0 0 0-.57 0L.37 4.41a.33.33 0 0 0 0 .51l3.45 3.12c.07.07.18.11.28.11.1 0 .21-.04.29-.1a.35.35 0 0 0 0-.52z"/><path fill="none" stroke="#979797" stroke-miterlimit="50" stroke-width=".5" d="M1.23 4.68l3.16-2.87a.35.35 0 0 0 0-.5.42.42 0 0 0-.57 0L.37 4.41a.33.33 0 0 0 0 .51l3.45 3.12c.07.07.18.11.28.11.1 0 .21-.04.29-.1a.35.35 0 0 0 0-.52z"/></svg>