<?xml version="1.0" encoding="UTF-8"?>
<svg width="158px" height="27px" viewBox="0 0 158 27" version="1.1" xmlns="http://www.w3.org/2000/svg" xmlns:xlink="http://www.w3.org/1999/xlink">
    <!-- Generator: Sketch 44.1 (41455) - http://www.bohemiancoding.com/sketch -->
    <title>yarpaq.az</title>
    <desc>Created with Sketch.</desc>
    <defs></defs>
    <g id="Welcome" stroke="none" stroke-width="1" fill="none" fill-rule="evenodd">
        <g id="Home-Page" transform="translate(-59.000000, -63.000000)" fill="#FFFFFF">
            <path d="M65.4375,80.2734375 L59.4609375,65.9130859 C59.3502599,65.6585274 59.2949219,65.3984388 59.2949219,65.1328125 C59.2949219,64.9003895 59.3391923,64.6790375 59.4277344,64.46875 C59.5162765,64.2584625 59.6380201,64.0730802 59.7929688,63.9125977 C59.9479174,63.7521151 60.1305328,63.6276046 60.3408203,63.5390625 C60.5511078,63.4505204 60.7779936,63.40625 61.0214844,63.40625 C61.364585,63.40625 61.6855454,63.5030915 61.984375,63.6967773 C62.2832046,63.8904632 62.5100904,64.1754538 62.6650391,64.5517578 L67.3300781,75.6914062 L71.9951172,64.5185547 C72.1279304,64.1865218 72.3188464,63.9181325 72.5678711,63.7133789 C72.8168958,63.5086253 73.168292,63.40625 73.6220703,63.40625 C73.8655611,63.40625 74.0924469,63.4505204 74.3027344,63.5390625 C74.5130219,63.6276046 74.6956372,63.7521151 74.8505859,63.9125977 C75.0055346,64.0730802 75.1300451,64.2584625 75.2241211,64.46875 C75.3181971,64.6790375 75.3652344,64.9003895 75.3652344,65.1328125 C75.3652344,65.3763033 75.3043626,65.6363918 75.1826172,65.9130859 L65.6367188,88.8066406 C65.4928378,89.1497413 65.2714859,89.4291981 64.9726562,89.6450195 C64.6738266,89.8608409 64.3473325,89.96875 63.9931641,89.96875 C63.4951147,89.96875 63.0828467,89.802736 62.7563477,89.4707031 C62.4298486,89.1386702 62.2666016,88.7236353 62.2666016,88.2255859 C62.2666016,87.9599596 62.3219396,87.7054049 62.4326172,87.4619141 L65.4375,80.2734375 Z M86.4212191,66.8759766 C85.6022046,66.8759766 84.8385404,67.0309229 84.1302035,67.3408203 C83.4218666,67.6507177 82.8076149,68.0685195 82.28743,68.5942383 C81.7672452,69.1199571 81.3549771,69.7369756 81.0506136,70.4453125 C80.7462501,71.1536494 80.5940707,71.906246 80.5940707,72.703125 C80.5940707,73.500004 80.7462501,74.2526006 81.0506136,74.9609375 C81.3549771,75.6692744 81.7672452,76.2862929 82.28743,76.8120117 C82.8076149,77.3377305 83.4218666,77.7555323 84.1302035,78.0654297 C84.8385404,78.3753271 85.6022046,78.5302734 86.4212191,78.5302734 C87.2291659,78.5302734 87.9872963,78.3753271 88.6956332,78.0654297 C89.40397,77.7555323 90.0209886,77.3349636 90.5467074,76.8037109 C91.0724262,76.2724583 91.4874611,75.6554397 91.7918246,74.9526367 C92.0961881,74.2498337 92.2483675,73.500004 92.2483675,72.703125 C92.2483675,71.906246 92.0961881,71.1564163 91.7918246,70.4536133 C91.4874611,69.7508103 91.0724262,69.1337917 90.5467074,68.6025391 C90.0209886,68.0712864 89.40397,67.6507177 88.6956332,67.3408203 C87.9872963,67.0309229 87.2291659,66.8759766 86.4212191,66.8759766 Z M92.2483675,80.2734375 L92.2483675,79.9414062 C91.4182853,80.6054721 90.5162761,81.1145816 89.5423129,81.46875 C88.5683497,81.8229184 87.5279955,82 86.4212191,82 C83.8534979,82 81.6621136,81.092457 79.8470004,79.2773438 C78.0318871,77.4622305 77.1243441,75.2708462 77.1243441,72.703125 C77.1243441,70.1354038 78.0318871,67.9440195 79.8470004,66.1289062 C81.6621136,64.313793 83.8534979,63.40625 86.4212191,63.40625 C88.9668048,63.40625 91.1581891,64.313793 92.9954379,66.1289062 C94.8105511,67.9440195 95.7180941,70.1354038 95.7180941,72.703125 L95.7180941,80.2734375 C95.7180941,80.7493513 95.5493132,81.1560856 95.2117465,81.4936523 C94.8741797,81.8312191 94.4674454,82 93.9915316,82 C93.50455,82 93.092282,81.8312191 92.7547152,81.4936523 C92.4171484,81.1560856 92.2483675,80.7493513 92.2483675,80.2734375 Z M100.980134,65.1328125 L100.980134,65.4648438 C101.810216,64.8007779 102.712225,64.2916684 103.686188,63.9375 C104.660151,63.5833316 105.700506,63.40625 106.807282,63.40625 C107.294264,63.40625 107.817208,63.4394528 108.37613,63.5058594 C108.935052,63.572266 109.449695,63.6912426 109.920075,63.862793 C110.390455,64.0343433 110.780588,64.2695298 111.090485,64.5683594 C111.400382,64.867189 111.555329,65.2545549 111.555329,65.7304688 C111.555329,65.9739596 111.508292,66.2008453 111.414216,66.4111328 C111.32014,66.6214203 111.195629,66.8068026 111.04068,66.9672852 C110.885732,67.1277677 110.703116,67.2522782 110.492829,67.3408203 C110.282541,67.4293624 110.055656,67.4736328 109.812165,67.4736328 C109.601877,67.4736328 109.35839,67.412761 109.081696,67.2910156 C108.384427,67.0143215 107.626296,66.8759766 106.807282,66.8759766 C105.999335,66.8759766 105.241205,67.028156 104.532868,67.3325195 C103.824531,67.636883 103.207512,68.0519179 102.681794,68.5776367 C102.156075,69.1033555 101.74104,69.7203741 101.436677,70.4287109 C101.132313,71.1370478 100.980134,71.8951783 100.980134,72.703125 L100.980134,80.2734375 C100.980134,80.7493513 100.811353,81.1560856 100.473786,81.4936523 C100.136219,81.8312191 99.7294849,82 99.253571,82 C98.7665894,82 98.3543214,81.8312191 98.0167546,81.4936523 C97.6791878,81.1560856 97.510407,80.7493513 97.510407,80.2734375 L97.510407,65.1328125 C97.510407,64.6568987 97.6791878,64.2501644 98.0167546,63.9125977 C98.3543214,63.5750309 98.7665894,63.40625 99.253571,63.40625 C99.7294849,63.40625 100.136219,63.5750309 100.473786,63.9125977 C100.811353,64.2501644 100.980134,64.6568987 100.980134,65.1328125 Z M116.186509,72.703125 C116.186509,73.500004 116.338688,74.2526006 116.643052,74.9609375 C116.947415,75.6692744 117.359683,76.2862929 117.879868,76.8120117 C118.400053,77.3377305 119.014305,77.7555323 119.722642,78.0654297 C120.430979,78.3753271 121.194643,78.5302734 122.013657,78.5302734 C122.821604,78.5302734 123.579735,78.3753271 124.288071,78.0654297 C124.996408,77.7555323 125.613427,77.3349636 126.139146,76.8037109 C126.664864,76.2724583 127.079899,75.6554397 127.384263,74.9526367 C127.688626,74.2498337 127.840806,73.500004 127.840806,72.703125 C127.840806,71.906246 127.688626,71.1564163 127.384263,70.4536133 C127.079899,69.7508103 126.664864,69.1337917 126.139146,68.6025391 C125.613427,68.0712864 124.996408,67.6507177 124.288071,67.3408203 C123.579735,67.0309229 122.821604,66.8759766 122.013657,66.8759766 C121.194643,66.8759766 120.430979,67.0309229 119.722642,67.3408203 C119.014305,67.6507177 118.400053,68.0685195 117.879868,68.5942383 C117.359683,69.1199571 116.947415,69.7369756 116.643052,70.4453125 C116.338688,71.1536494 116.186509,71.906246 116.186509,72.703125 Z M122.013657,82 C119.789037,82 117.846673,81.3193427 116.186509,79.9580078 L116.186509,88.2421875 C116.186509,88.7402369 116.017728,89.1525049 115.680161,89.4790039 C115.342594,89.8055029 114.930326,89.96875 114.443345,89.96875 C113.945295,89.96875 113.533027,89.8055029 113.206528,89.4790039 C112.880029,89.1525049 112.716782,88.7402369 112.716782,88.2421875 L112.716782,72.703125 C112.716782,70.1354038 113.624325,67.9440195 115.439439,66.1289062 C117.254552,64.313793 119.445936,63.40625 122.013657,63.40625 C124.559243,63.40625 126.750627,64.313793 128.587876,66.1289062 C129.495433,67.0253951 130.17609,68.0242458 130.629868,69.1254883 C131.083647,70.2267308 131.310532,71.4192644 131.310532,72.703125 C131.310532,75.2929817 130.402989,77.484366 128.587876,79.2773438 C127.658184,80.1959681 126.648266,80.8793923 125.558091,81.3276367 C124.467916,81.7758811 123.28645,82 122.013657,82 Z M142.466126,66.8759766 C141.647112,66.8759766 140.883448,67.0309229 140.175111,67.3408203 C139.466774,67.6507177 138.852522,68.0685195 138.332337,68.5942383 C137.812152,69.1199571 137.399884,69.7369756 137.095521,70.4453125 C136.791157,71.1536494 136.638978,71.906246 136.638978,72.703125 C136.638978,73.500004 136.791157,74.2526006 137.095521,74.9609375 C137.399884,75.6692744 137.812152,76.2862929 138.332337,76.8120117 C138.852522,77.3377305 139.466774,77.7555323 140.175111,78.0654297 C140.883448,78.3753271 141.647112,78.5302734 142.466126,78.5302734 C143.274073,78.5302734 144.032204,78.3753271 144.740541,78.0654297 C145.448877,77.7555323 146.065896,77.3349636 146.591615,76.8037109 C147.117333,76.2724583 147.532368,75.6554397 147.836732,74.9526367 C148.141095,74.2498337 148.293275,73.500004 148.293275,72.703125 C148.293275,71.906246 148.141095,71.1564163 147.836732,70.4536133 C147.532368,69.7508103 147.117333,69.1337917 146.591615,68.6025391 C146.065896,68.0712864 145.448877,67.6507177 144.740541,67.3408203 C144.032204,67.0309229 143.274073,66.8759766 142.466126,66.8759766 Z M148.293275,80.2734375 L148.293275,79.9414062 C147.463193,80.6054721 146.561183,81.1145816 145.58722,81.46875 C144.613257,81.8229184 143.572903,82 142.466126,82 C139.898405,82 137.707021,81.092457 135.891908,79.2773438 C134.076794,77.4622305 133.169251,75.2708462 133.169251,72.703125 C133.169251,70.1354038 134.076794,67.9440195 135.891908,66.1289062 C137.707021,64.313793 139.898405,63.40625 142.466126,63.40625 C145.011712,63.40625 147.203096,64.313793 149.040345,66.1289062 C150.855458,67.9440195 151.763001,70.1354038 151.763001,72.703125 L151.763001,80.2734375 C151.763001,80.7493513 151.594221,81.1560856 151.256654,81.4936523 C150.919087,81.8312191 150.512353,82 150.036439,82 C149.549457,82 149.137189,81.8312191 148.799623,81.4936523 C148.462056,81.1560856 148.293275,80.7493513 148.293275,80.2734375 Z M162.918596,66.8759766 C162.099581,66.8759766 161.335917,67.0309229 160.62758,67.3408203 C159.919243,67.6507177 159.304991,68.0685195 158.784806,68.5942383 C158.264622,69.1199571 157.852354,69.7369756 157.54799,70.4453125 C157.243627,71.1536494 157.091447,71.906246 157.091447,72.703125 C157.091447,73.500004 157.243627,74.2526006 157.54799,74.9609375 C157.852354,75.6692744 158.264622,76.2862929 158.784806,76.8120117 C159.304991,77.3377305 159.919243,77.7555323 160.62758,78.0654297 C161.335917,78.3753271 162.099581,78.5302734 162.918596,78.5302734 C163.726542,78.5302734 164.484673,78.3753271 165.19301,78.0654297 C165.901346,77.7555323 166.518365,77.3349636 167.044084,76.8037109 C167.569803,76.2724583 167.984838,75.6554397 168.289201,74.9526367 C168.593565,74.2498337 168.745744,73.500004 168.745744,72.703125 C168.745744,71.906246 168.593565,71.1564163 168.289201,70.4536133 C167.984838,69.7508103 167.569803,69.1337917 167.044084,68.6025391 C166.518365,68.0712864 165.901346,67.6507177 165.19301,67.3408203 C164.484673,67.0309229 163.726542,66.8759766 162.918596,66.8759766 Z M168.745744,79.9580078 C167.085579,81.3193427 165.143216,82 162.918596,82 C160.350874,82 158.15949,81.092457 156.344377,79.2773438 C154.529264,77.4622305 153.621721,75.2708462 153.621721,72.703125 C153.621721,70.1354038 154.529264,67.9440195 156.344377,66.1289062 C158.15949,64.313793 160.350874,63.40625 162.918596,63.40625 C165.464181,63.40625 167.655566,64.313793 169.492814,66.1289062 C171.307928,67.9440195 172.215471,70.1354038 172.215471,72.703125 L172.215471,88.2421875 C172.215471,88.7402369 172.04669,89.1525049 171.709123,89.4790039 C171.371556,89.8055029 170.959288,89.96875 170.472306,89.96875 C169.974257,89.96875 169.561989,89.8055029 169.23549,89.4790039 C168.908991,89.1525049 168.745744,88.7402369 168.745744,88.2421875 L168.745744,79.9580078 Z M178.440401,79.6425781 C178.440401,80.2955762 178.210748,80.851723 177.751436,81.3110352 C177.292124,81.7703473 176.735977,82 176.082979,82 C175.429981,82 174.873834,81.7703473 174.414522,81.3110352 C173.95521,80.851723 173.725557,80.2955762 173.725557,79.6425781 C173.725557,78.9895801 173.95521,78.4334333 174.414522,77.9741211 C174.873834,77.5148089 175.429981,77.2851562 176.082979,77.2851562 C176.735977,77.2851562 177.292124,77.5148089 177.751436,77.9741211 C178.210748,78.4334333 178.440401,78.9895801 178.440401,79.6425781 Z M189.214159,66.8759766 C188.395144,66.8759766 187.63148,67.0309229 186.923143,67.3408203 C186.214806,67.6507177 185.600555,68.0685195 185.08037,68.5942383 C184.560185,69.1199571 184.147917,69.7369756 183.843553,70.4453125 C183.53919,71.1536494 183.38701,71.906246 183.38701,72.703125 C183.38701,73.500004 183.53919,74.2526006 183.843553,74.9609375 C184.147917,75.6692744 184.560185,76.2862929 185.08037,76.8120117 C185.600555,77.3377305 186.214806,77.7555323 186.923143,78.0654297 C187.63148,78.3753271 188.395144,78.5302734 189.214159,78.5302734 C190.022106,78.5302734 190.780236,78.3753271 191.488573,78.0654297 C192.19691,77.7555323 192.813928,77.3349636 193.339647,76.8037109 C193.865366,76.2724583 194.280401,75.6554397 194.584764,74.9526367 C194.889128,74.2498337 195.041307,73.500004 195.041307,72.703125 C195.041307,71.906246 194.889128,71.1564163 194.584764,70.4536133 C194.280401,69.7508103 193.865366,69.1337917 193.339647,68.6025391 C192.813928,68.0712864 192.19691,67.6507177 191.488573,67.3408203 C190.780236,67.0309229 190.022106,66.8759766 189.214159,66.8759766 Z M195.041307,80.2734375 L195.041307,79.9414062 C194.211225,80.6054721 193.309216,81.1145816 192.335253,81.46875 C191.361289,81.8229184 190.320935,82 189.214159,82 C186.646438,82 184.455053,81.092457 182.63994,79.2773438 C180.824827,77.4622305 179.917284,75.2708462 179.917284,72.703125 C179.917284,70.1354038 180.824827,67.9440195 182.63994,66.1289062 C184.455053,64.313793 186.646438,63.40625 189.214159,63.40625 C191.759744,63.40625 193.951129,64.313793 195.788378,66.1289062 C197.603491,67.9440195 198.511034,70.1354038 198.511034,72.703125 L198.511034,80.2734375 C198.511034,80.7493513 198.342253,81.1560856 198.004686,81.4936523 C197.667119,81.8312191 197.260385,82 196.784471,82 C196.29749,82 195.885222,81.8312191 195.547655,81.4936523 C195.210088,81.1560856 195.041307,80.7493513 195.041307,80.2734375 Z M214.663698,82 L202.063112,82 C201.819621,82 201.592736,81.9557296 201.382448,81.8671875 C201.172161,81.7786454 200.989545,81.6541349 200.834597,81.4936523 C200.679648,81.3331698 200.557904,81.1477875 200.469362,80.9375 C200.38082,80.7272125 200.33655,80.5058605 200.33655,80.2734375 C200.33655,79.8639302 200.45276,79.5042333 200.685183,79.1943359 L210.96155,66.8759766 L202.063112,66.8759766 C201.598266,66.8759766 201.197066,66.7071957 200.859499,66.3696289 C200.521932,66.0320621 200.353151,65.6197941 200.353151,65.1328125 C200.353151,64.6568987 200.521932,64.2501644 200.859499,63.9125977 C201.197066,63.5750309 201.598266,63.40625 202.063112,63.40625 L214.663698,63.40625 C214.907189,63.40625 215.134075,63.4505204 215.344362,63.5390625 C215.55465,63.6276046 215.737265,63.7521151 215.892214,63.9125977 C216.047163,64.0730802 216.171673,64.2584625 216.265749,64.46875 C216.359825,64.6790375 216.406862,64.9003895 216.406862,65.1328125 C216.406862,65.5865908 216.268517,65.9684229 215.991823,66.2783203 L205.732058,78.5302734 L214.663698,78.5302734 C215.139612,78.5302734 215.543579,78.6990543 215.875612,79.0366211 C216.207645,79.3741879 216.373659,79.7809221 216.373659,80.2568359 C216.373659,80.7438175 216.207645,81.1560856 215.875612,81.4936523 C215.543579,81.8312191 215.139612,82 214.663698,82 Z" id="yarpaq.az"></path>
        </g>
    </g>
</svg>