<?xml version="1.0" encoding="utf-8"?>
<!-- Generator: Adobe Illustrator 16.2.0, SVG Export Plug-In . SVG Version: 6.00 Build 0)  -->
<!DOCTYPE svg PUBLIC "-//W3C//DTD SVG 1.1//EN" "http://www.w3.org/Graphics/SVG/1.1/DTD/svg11.dtd">
<svg version="1.1" id="Слой_1" xmlns="http://www.w3.org/2000/svg" xmlns:xlink="http://www.w3.org/1999/xlink" x="0px" y="0px"
	 width="158px" height="27px" viewBox="0 0 158 27" enable-background="new 0 0 158 27" xml:space="preserve">
<title>yarpaq.az</title>
<desc>Created with Sketch.</desc>
<g id="Welcome">
	<g id="Succes-Page" transform="translate(-59.000000, -63.000000)">
		<g enable-background="new    ">
			<path fill="#FFFFFF" d="M59,64.369h4.964l4.217,12.518l4.117-12.518h4.831l-6.226,16.967l-1.112,3.071
				c-0.41,1.029-0.8,1.815-1.17,2.357c-0.371,0.542-0.797,0.982-1.278,1.319c-0.481,0.338-1.074,0.601-1.776,0.789
				c-0.703,0.188-1.497,0.282-2.382,0.282c-0.896,0-1.776-0.094-2.64-0.282l-0.415-3.652c0.73,0.144,1.389,0.216,1.976,0.216
				c1.084,0,1.887-0.318,2.407-0.954c0.52-0.637,0.918-1.447,1.195-2.433L59,64.369z"/>
			<path fill="#FFFFFF" d="M82.821,69.748l-4.233-0.764c0.476-1.704,1.295-2.966,2.457-3.785s2.889-1.229,5.18-1.229
				c2.081,0,3.63,0.246,4.648,0.738c1.018,0.493,1.735,1.118,2.15,1.877c0.415,0.758,0.623,2.149,0.623,4.175l-0.05,5.445
				c0,1.55,0.075,2.692,0.224,3.429c0.149,0.735,0.429,1.524,0.838,2.365h-4.615c-0.122-0.31-0.271-0.77-0.448-1.378
				c-0.078-0.276-0.133-0.459-0.166-0.548c-0.797,0.774-1.649,1.355-2.557,1.743c-0.908,0.388-1.876,0.581-2.905,0.581
				c-1.815,0-3.246-0.492-4.292-1.478s-1.569-2.23-1.569-3.735c0-0.996,0.238-1.885,0.714-2.664c0.476-0.781,1.143-1.379,2-1.793
				c0.857-0.416,2.094-0.778,3.71-1.088c2.18-0.409,3.691-0.791,4.532-1.146V70.03c0-0.896-0.222-1.536-0.664-1.917
				c-0.443-0.383-1.278-0.573-2.507-0.573c-0.83,0-1.478,0.163-1.942,0.489C83.485,68.356,83.109,68.929,82.821,69.748z
				 M89.063,73.533c-0.598,0.199-1.544,0.438-2.839,0.714s-2.142,0.548-2.54,0.813c-0.609,0.432-0.913,0.979-0.913,1.644
				c0,0.653,0.243,1.218,0.73,1.693c0.487,0.476,1.106,0.714,1.859,0.714c0.841,0,1.644-0.276,2.407-0.83
				c0.564-0.421,0.935-0.936,1.112-1.544c0.122-0.398,0.183-1.156,0.183-2.274V73.533z"/>
			<path fill="#FFFFFF" d="M101.928,82h-4.665V64.369h4.333v2.507c0.741-1.185,1.408-1.965,2-2.341
				c0.592-0.376,1.264-0.564,2.017-0.564c1.063,0,2.086,0.293,3.071,0.88l-1.444,4.067c-0.786-0.509-1.517-0.764-2.191-0.764
				c-0.653,0-1.207,0.18-1.66,0.539c-0.454,0.36-0.811,1.011-1.071,1.951c-0.26,0.94-0.39,2.911-0.39,5.91V82z"/>
			<path fill="#FFFFFF" d="M109.779,64.369h4.35v2.59c0.564-0.886,1.328-1.604,2.291-2.158s2.031-0.83,3.204-0.83
				c2.047,0,3.785,0.803,5.213,2.407s2.142,3.841,2.142,6.707c0,2.944-0.72,5.232-2.158,6.864c-1.439,1.633-3.182,2.449-5.229,2.449
				c-0.974,0-1.857-0.193-2.648-0.581c-0.792-0.388-1.625-1.052-2.499-1.992v8.882h-4.665V64.369z M114.394,72.886
				c0,1.981,0.393,3.444,1.179,4.392c0.786,0.945,1.743,1.419,2.872,1.419c1.084,0,1.986-0.435,2.706-1.304
				c0.719-0.868,1.079-2.293,1.079-4.274c0-1.849-0.371-3.221-1.112-4.117c-0.742-0.896-1.66-1.345-2.756-1.345
				c-1.14,0-2.086,0.439-2.839,1.32C114.77,69.855,114.394,71.159,114.394,72.886z"/>
			<path fill="#FFFFFF" d="M133.385,69.748l-4.233-0.764c0.476-1.704,1.295-2.966,2.457-3.785s2.889-1.229,5.18-1.229
				c2.081,0,3.63,0.246,4.648,0.738c1.019,0.493,1.735,1.118,2.149,1.877c0.416,0.758,0.623,2.149,0.623,4.175l-0.05,5.445
				c0,1.55,0.075,2.692,0.224,3.429c0.15,0.735,0.43,1.524,0.839,2.365h-4.615c-0.122-0.31-0.271-0.77-0.448-1.378
				c-0.078-0.276-0.133-0.459-0.166-0.548c-0.797,0.774-1.649,1.355-2.557,1.743c-0.908,0.388-1.876,0.581-2.905,0.581
				c-1.815,0-3.246-0.492-4.292-1.478s-1.569-2.23-1.569-3.735c0-0.996,0.238-1.885,0.714-2.664c0.476-0.781,1.143-1.379,2-1.793
				c0.857-0.416,2.094-0.778,3.71-1.088c2.181-0.409,3.69-0.791,4.532-1.146V70.03c0-0.896-0.222-1.536-0.664-1.917
				c-0.443-0.383-1.278-0.573-2.507-0.573c-0.83,0-1.478,0.163-1.942,0.489C134.049,68.356,133.672,68.929,133.385,69.748z
				 M139.627,73.533c-0.598,0.199-1.544,0.438-2.839,0.714s-2.142,0.548-2.54,0.813c-0.609,0.432-0.913,0.979-0.913,1.644
				c0,0.653,0.243,1.218,0.73,1.693c0.487,0.476,1.106,0.714,1.859,0.714c0.841,0,1.644-0.276,2.407-0.83
				c0.564-0.421,0.936-0.936,1.112-1.544c0.122-0.398,0.183-1.156,0.183-2.274V73.533z"/>
			<path fill="#FFFFFF" d="M159.547,88.707v-8.865c-0.609,0.786-1.367,1.408-2.274,1.867c-0.907,0.46-1.888,0.689-2.938,0.689
				c-2.004,0-3.652-0.753-4.947-2.258c-1.527-1.76-2.291-4.145-2.291-7.155c0-2.833,0.717-5.044,2.15-6.632
				c1.433-1.589,3.212-2.383,5.337-2.383c1.173,0,2.188,0.249,3.046,0.747s1.619,1.251,2.283,2.258v-2.606h4.3v24.338H159.547z
				 M159.696,72.969c0-1.804-0.368-3.146-1.104-4.025c-0.736-0.881-1.657-1.32-2.764-1.32c-1.129,0-2.072,0.448-2.83,1.345
				c-0.759,0.896-1.138,2.318-1.138,4.267c0,1.937,0.365,3.334,1.096,4.191c0.73,0.858,1.632,1.287,2.706,1.287
				c1.073,0,2.014-0.481,2.822-1.444C159.292,76.306,159.696,74.872,159.696,72.969z"/>
			<path fill="#FFFFFF" d="M168.012,82v-4.665h4.666V82H168.012z"/>
			<path fill="#FFFFFF" d="M180.162,69.748l-4.232-0.764c0.475-1.704,1.295-2.966,2.457-3.785s2.889-1.229,5.18-1.229
				c2.08,0,3.629,0.246,4.648,0.738c1.018,0.493,1.734,1.118,2.149,1.877c0.415,0.758,0.622,2.149,0.622,4.175l-0.049,5.445
				c0,1.55,0.074,2.692,0.224,3.429C191.311,80.37,191.59,81.159,192,82h-4.615c-0.123-0.31-0.271-0.77-0.449-1.378
				c-0.077-0.276-0.133-0.459-0.166-0.548c-0.797,0.774-1.648,1.355-2.557,1.743c-0.907,0.388-1.875,0.581-2.904,0.581
				c-1.816,0-3.246-0.492-4.292-1.478s-1.569-2.23-1.569-3.735c0-0.996,0.238-1.885,0.715-2.664c0.475-0.781,1.143-1.379,2-1.793
				c0.857-0.416,2.094-0.778,3.711-1.088c2.18-0.409,3.69-0.791,4.531-1.146V70.03c0-0.896-0.221-1.536-0.664-1.917
				c-0.442-0.383-1.277-0.573-2.506-0.573c-0.83,0-1.479,0.163-1.943,0.489C180.826,68.356,180.45,68.929,180.162,69.748z
				 M186.404,73.533c-0.598,0.199-1.543,0.438-2.838,0.714s-2.143,0.548-2.541,0.813c-0.608,0.432-0.912,0.979-0.912,1.644
				c0,0.653,0.242,1.218,0.73,1.693c0.486,0.476,1.105,0.714,1.859,0.714c0.84,0,1.643-0.276,2.406-0.83
				c0.564-0.421,0.936-0.936,1.113-1.544c0.121-0.398,0.182-1.156,0.182-2.274V73.533z"/>
			<path fill="#FFFFFF" d="M192.928,82v-3.636l6.607-7.587c1.084-1.239,1.887-2.119,2.407-2.64
				c-0.542,0.033-1.257,0.056-2.142,0.066l-6.226,0.033v-3.868h14.576v3.304l-6.74,7.77l-2.374,2.573
				c1.295-0.077,2.098-0.116,2.407-0.116h7.222V82H192.928z"/>
		</g>
	</g>
</g>
</svg>
