<svg xmlns="http://www.w3.org/2000/svg" width="47" height="31" viewBox="0 0 47 31"><path fill="#d8d8d8" d="M0 4a4 4 0 0 1 4-4h39a4 4 0 0 1 4 4v23a4 4 0 0 1-4 4H4a4 4 0 0 1-4-4z"/><path fill="#ffb600" d="M43.21 15.5c0 6.33-5.16 11.5-11.6 11.5A11.58 11.58 0 0 1 20 15.5C20 9.17 25.16 4 31.54 4c6.51 0 11.67 5.17 11.67 11.5z"/><path fill="#f7981d" d="M31.61 4c6.38 0 11.6 5.17 11.6 11.5S38.05 27 31.61 27A11.58 11.58 0 0 1 20 15.5"/><path fill="#ff8500" d="M32 4c6.39 0 11.61 5.17 11.61 11.5S38.45 27 32 27"/><path fill="#ff5050" d="M16.51 4A11.57 11.57 0 0 0 5 15.5C5 21.83 10.17 27 16.64 27a11.9 11.9 0 0 0 7.82-2.98c.43-.37.8-.79 1.17-1.22h-2.41c-.3-.36-.61-.79-.86-1.15h4.13c.24-.37.49-.8.67-1.22h-5.47a7.42 7.42 0 0 1-.5-1.22h6.41c.37-1.15.61-2.37.61-3.65 0-.85-.12-1.64-.24-2.43h-7.15c.06-.43.19-.79.31-1.22h6.4c-.12-.43-.3-.85-.49-1.22h-5.42c.19-.42.43-.79.68-1.21h4.13a5.72 5.72 0 0 0-.93-1.22h-2.28c.37-.43.74-.79 1.17-1.16a11.45 11.45 0 0 0-7.81-2.98c0-.12 0-.12-.07-.12z"/><path fill="#e52836" d="M5 15.44C5 21.8 10.17 27 16.64 27c3.01 0 5.72-1.16 7.82-3 .43-.36.8-.79 1.17-1.22h-2.41c-.3-.37-.61-.8-.86-1.16h4.13c.24-.37.49-.8.67-1.23h-5.47a7.07 7.07 0 0 1-.5-1.22h6.41c.37-1.16.61-2.39.61-3.67 0-.86-.12-1.65-.24-2.45h-7.15c.06-.42.19-.79.31-1.22h6.4c-.12-.43-.3-.86-.49-1.22h-5.42c.19-.43.43-.8.68-1.23h4.13a5.98 5.98 0 0 0-.93-1.22h-2.28c.37-.43.74-.8 1.17-1.16-2.03-1.9-4.8-3-7.81-3h-.07"/><path fill="#cb2026" d="M17.12 27c3 0 5.68-1.16 7.76-3 .43-.36.79-.79 1.16-1.22h-2.38c-.31-.37-.61-.8-.86-1.16h4.1c.24-.37.48-.8.67-1.23h-5.44a7.06 7.06 0 0 1-.49-1.22h6.35c.37-1.16.62-2.39.62-3.67 0-.86-.13-1.65-.25-2.45h-7.08c.06-.42.18-.79.3-1.22h6.35c-.12-.43-.3-.86-.48-1.22h-5.38c.18-.43.43-.8.67-1.23h4.09a5.87 5.87 0 0 0-.91-1.22h-2.26c.36-.43.73-.8 1.16-1.16-2.02-1.9-4.77-3-7.76-3H17"/><path fill="#fff" d="M21.78 18.8l.18-.93c-.06 0-.18.06-.3.06-.43 0-.5-.22-.43-.33l.36-1.91h.68l.18-1.04h-.61l.12-.65h-1.22S20 17.6 20 18.03c0 .66.43.93.98.93.37 0 .68-.11.8-.16z"/><path fill="#fff" d="M22 16.46c0 1.53 1.16 1.91 2.15 1.91.92 0 1.28-.17 1.28-.17l.25-1.03s-.68.27-1.29.27c-1.35 0-1.1-.87-1.1-.87h2.51s.18-.71.18-.98c0-.71-.42-1.58-1.77-1.58C22.92 13.9 22 15.1 22 16.46zm2.15-1.58c.67 0 .55.71.55.76h-1.35c0-.05.12-.76.8-.76zM31.37 18.29l.25-1.2s-.62.27-1.05.27c-.85 0-1.22-.6-1.22-1.25 0-1.31.73-2.02 1.59-2.02.62 0 1.11.33 1.11.33l.18-1.15s-.74-.27-1.41-.27C29.41 13 28 14.09 28 16.16c0 1.37.74 2.29 2.21 2.29.49 0 1.16-.16 1.16-.16zM14.33 14c-.86 0-1.47.22-1.47.22l-.19.92s.56-.21 1.35-.21c.43 0 .8.05.8.38 0 .22-.06.27-.06.27h-.55c-1.05 0-2.21.38-2.21 1.64 0 .98.74 1.2 1.16 1.2.86 0 1.23-.49 1.29-.49l-.06.43h1.1l.49-3c0-1.31-1.22-1.36-1.65-1.36zm.24 2.45c0 .17-.12 1.04-.85 1.04-.37 0-.49-.27-.49-.44 0-.27.18-.65 1.1-.65.18.05.24.05.24.05zM17.41 18.47c.31 0 1.84.06 1.84-1.42 0-1.36-1.47-1.09-1.47-1.63 0-.28.24-.38.67-.38.19 0 .86.05.86.05l.18-.98s-.42-.11-1.16-.11c-.92 0-1.84.33-1.84 1.42 0 1.25 1.53 1.14 1.53 1.63 0 .33-.43.38-.73.38-.55 0-1.11-.16-1.11-.16l-.18.98c.06.11.37.22 1.41.22zM41.49 13l-.24 1.47s-.49-.54-1.17-.54c-1.1 0-2.08 1.2-2.08 2.61 0 .88.49 1.8 1.53 1.8.74 0 1.17-.43 1.17-.43l-.06.38h1.22l.92-5.24zm-.55 2.89c0 .6-.3 1.36-.98 1.36-.43 0-.67-.32-.67-.87 0-.87.43-1.42.98-1.42.43 0 .67.28.67.93z"/><path fill="#fff" d="M8.16 18.23l.74-3.92.12 3.92h.86l1.6-3.92-.68 3.92h1.29l.98-5.23h-2.02l-1.23 3.22L9.76 13H7.98L7 18.23zM27.35 18.25c.37-1.8.43-3.27 1.29-3 .12-.7.3-.98.43-1.25h-.25c-.55 0-.98.65-.98.65l.12-.6H26.8l-.8 4.26h1.35zM34.33 14c-.86 0-1.47.22-1.47.22l-.19.92s.56-.21 1.35-.21c.43 0 .8.05.8.38 0 .22-.06.27-.06.27h-.55c-1.05 0-2.21.38-2.21 1.64 0 .98.74 1.2 1.16 1.2.86 0 1.23-.49 1.29-.49l-.06.43h1.1l.49-3c.07-1.31-1.22-1.36-1.65-1.36zm.31 2.45c0 .17-.13 1.04-.86 1.04-.37 0-.49-.27-.49-.44 0-.27.18-.65 1.1-.65.18.05.18.05.25.05zM37.35 18.25c.37-1.8.43-3.27 1.29-3 .12-.7.3-.98.43-1.25h-.25c-.55 0-.98.65-.98.65l.12-.6H36.8l-.8 4.26h1.35z"/><path fill="#dce5e5" d="M19 18.03c0 .66.43.93.98.93.43 0 .8-.11.92-.16l.18-.93c-.06 0-.18.06-.3.06-.43 0-.49-.22-.43-.33l.37-1.91h.67l.18-1.04h-.61l.12-.65M22 16.46c0 1.53.55 1.91 1.53 1.91.92 0 1.29-.17 1.29-.17l.25-1.03s-.68.27-1.29.27c-1.35 0-1.11-.87-1.11-.87h2.52s.18-.71.18-.98c0-.71-.43-1.58-1.78-1.58C22.31 13.9 22 15.1 22 16.46zm1.53-1.58c.68 0 .8.71.8.76h-1.59c0-.05.12-.76.79-.76zM31.76 18.29l.24-1.2s-.61.27-1.04.27c-.86 0-1.22-.6-1.22-1.25 0-1.31.73-2.02 1.59-2.02.61 0 1.1.33 1.1.33l.19-1.15s-.74-.27-1.41-.27C29.8 13 29 14.09 29 16.16c0 1.37.12 2.29 1.59 2.29.49 0 1.17-.16 1.17-.16zM12.67 15.09s.56-.22 1.35-.22c.43 0 .8.06.8.38 0 .22-.06.28-.06.28h-.55c-1.05 0-2.21.38-2.21 1.63 0 .98.74 1.2 1.16 1.2.86 0 1.23-.49 1.29-.49l-.06.44h1.1l.49-3c0-1.26-1.22-1.31-1.71-1.31zm2.52 1.25c0 .17-.74 1.04-1.47 1.04-.37 0-.49-.27-.49-.44 0-.27.18-.65 1.1-.65.18.05.86.05.86.05z"/><path fill="#dce5e5" d="M16 18.36s.37.11 1.41.11c.31 0 1.84.06 1.84-1.42 0-1.36-1.47-1.09-1.47-1.63 0-.28.24-.38.67-.38.19 0 .86.05.86.05l.18-.98s-.42-.11-1.16-.11c-.92 0-1.23.33-1.23 1.42 0 1.25.92 1.14.92 1.63 0 .33-.43.38-.73.38M41.64 14.42s-.49-.55-1.16-.55c-1.11 0-1.48 1.2-1.48 2.62 0 .87-.12 1.8.92 1.8.74 0 1.17-.44 1.17-.44l-.06.38h1.22l.92-5.23zm-.06 1.41c0 .6-.55 1.37-1.23 1.37-.43 0-.67-.33-.67-.87 0-.88.43-1.42.98-1.42.43 0 .92.27.92.92zM8.16 18.23l.74-3.92.12 3.92h.86l1.6-3.92-.68 3.92h1.29l.98-5.23h-1.53l-1.72 3.22L9.76 13h-.68L7 18.23zM26 18.25h1.29c.37-1.8.43-3.27 1.28-3 .13-.7.31-.98.43-1.25h-.24c-.55 0-.98.65-.98.65l.12-.6M32.67 15.09s.56-.22 1.35-.22c.43 0 .8.06.8.38 0 .22-.06.28-.06.28h-.55c-1.05 0-2.21.38-2.21 1.63 0 .98.74 1.2 1.16 1.2.86 0 1.23-.49 1.29-.49l-.06.44h1.1l.49-3c0-1.26-1.22-1.31-1.71-1.31zm2.52 1.25c0 .17-.74 1.04-1.47 1.04-.37 0-.49-.27-.49-.44 0-.27.18-.65 1.1-.65.24.05.86.05.86.05zM36 18.25h1.29c.37-1.8.43-3.27 1.28-3 .13-.7.31-.98.43-1.25h-.24c-.55 0-.98.65-.98.65l.12-.6"/></svg>