<svg xmlns="http://www.w3.org/2000/svg" width="16" height="17" viewBox="0 0 16 17"><path fill="#fff" d="M15.99 4.01a.41.41 0 0 0-.34-.42L8.18.04a.53.53 0 0 0-.39 0L.25 3.62a.43.43 0 0 0-.25.37v9c0 .16.1.31.25.39l7.54 3.57.01.01.03.01h.02l.03.02h.01l.04.01H8.05l.03-.01h.02l.03-.02h.01l.04-.01v-.01l7.57-3.58a.45.45 0 0 0 .25-.39V4.02l-.01-.01zm-8-3.1l6.54 3.1-2.41 1.15-6.54-3.11zm0 6.21L1.44 4.01l3.13-1.48 6.54 3.1zM.88 4.7l6.67 3.16v8.02L.88 12.72zm7.55 11.18V7.86l3.12-1.48v2.09c0 .24.2.44.44.44.25 0 .44-.2.44-.44V5.96l2.68-1.27v8.01z"/></svg>