<svg xmlns="http://www.w3.org/2000/svg" width="13" height="13" viewBox="0 0 13 13"><path fill="#fff" d="M12.99 9.47c.03.2-.03.36-.17.51l-1.69 1.68a1.38 1.38 0 0 1-.66.33h-.08l-.17.01a6 6 0 0 1-2.1-.49 11.56 11.56 0 0 1-3.88-2.75A12.2 12.2 0 0 1 1.83 5.6a7.72 7.72 0 0 1-.78-2.19A3.14 3.14 0 0 1 1 2.78l.01-.25a1.27 1.27 0 0 1 .34-.66L3.03.18A.57.57 0 0 1 3.44 0c.11 0 .21.03.29.1a.8.8 0 0 1 .22.23l1.36 2.58c.07.14.1.28.06.45a.74.74 0 0 1-.21.4l-.63.63a.2.2 0 0 0-.04.08l-.02.09c.03.18.11.38.23.61.1.21.26.45.47.75.21.29.51.63.9 1.01.38.39.72.69 1.02.91.29.21.54.37.74.47.2.11.35.17.46.19l.16.03.08-.02.08-.04.73-.74c.15-.14.33-.2.53-.2.14 0 .26.02.34.07h.01l2.46 1.45c.17.11.28.25.31.42z"/></svg>