<svg xmlns="http://www.w3.org/2000/svg" width="47" height="31" viewBox="0 0 47 31"><path fill="#fff" d="M47 28.34A2.72 2.72 0 0 1 44.22 31H2.78A2.72 2.72 0 0 1 0 28.34V2.66A2.72 2.72 0 0 1 2.78 0h41.44A2.72 2.72 0 0 1 47 2.66z"/><path fill="#f79f1a" d="M9 16l-1.01-5.07c-.18-.69-.68-.9-1.31-.93H2.04l-.04.23c3.61.92 6.01 3.12 7 5.77z"/><path fill="#059bbf" d="M22.31 10h-3.27L17 21.19h3.26zM12.38 21.17L17.52 10h-3.46l-3.2 7.63-.34-1.15C9.9 15.09 8.1 13.1 6 11.84l2.92 9.33zM31.32 16.72c.02-1.27-.86-2.24-2.74-3.04-1.14-.51-1.84-.86-1.83-1.38 0-.47.59-.96 1.87-.96 1.07-.02 1.84.2 2.44.42l.3.13.44-2.42A8.9 8.9 0 0 0 28.87 9c-3.23 0-5.5 1.52-5.52 3.69-.02 1.61 1.63 2.51 2.87 3.04 1.27.55 1.69.9 1.68 1.39 0 .75-1.01 1.09-1.95 1.09-1.31 0-2-.17-3.07-.59l-.42-.18-.46 2.51c.76.31 2.17.58 3.64.59 3.43 0 5.66-1.49 5.68-3.82zM35.12 19.5h4.18l.4 1.68h3.03L40.08 10h-2.52c-.78 0-1.36.2-1.71.93L31 21.18h3.43l.69-1.68zm2.24-5.42l.43-1.07.22.97.76 3.23h-2.71l1.3-3.13zM44.22 0H2.78C1.24 0 0 1.16 0 2.59v2.7h47v-2.7C47 1.16 45.76 0 44.22 0z"/><path fill="#f79f1a" d="M44.22 31H2.78A2.86 2.86 0 0 1 0 28.06V25h47v3.06A2.86 2.86 0 0 1 44.22 31z"/><path fill="#202121" d="M2.08 28.34V2.66C2.08 1.19 3.39 0 5 0H2.92C1.31 0 0 1.19 0 2.66v25.68C0 29.81 1.31 31 2.92 31H5c-1.61 0-2.92-1.19-2.92-2.66z"/></svg>