<svg xmlns="http://www.w3.org/2000/svg" width="16" height="15" viewBox="0 0 16 15"><path fill="#fff" d="M11.49 0C10.12 0 8.85.61 8 1.62A4.56 4.56 0 0 0 4.51 0 4.48 4.48 0 0 0 0 4.43c0 1.92 1.16 4.13 3.45 6.58a34.66 34.66 0 0 0 4.23 3.76L8 15l.32-.23c.54-.41 2.46-1.87 4.23-3.76C14.84 8.56 16 6.35 16 4.43A4.48 4.48 0 0 0 11.49 0zm.28 10.31A31.14 31.14 0 0 1 8 13.7a31.14 31.14 0 0 1-3.77-3.39C2.15 8.09 1.05 6.06 1.05 4.43a3.43 3.43 0 0 1 3.46-3.39c1.26 0 2.42.67 3.03 1.75l.46.82.46-.82a3.47 3.47 0 0 1 3.03-1.75c1.9 0 3.46 1.52 3.46 3.39 0 1.63-1.1 3.66-3.18 5.88z"/></svg>